light-narrow vv(20.0-6.2)-(80.5-100.0)-10.0-0.0-(0.0-0.0).ufo
<glyph name="be-cy.sc" format="1">
  <advance width="1062"/>
  <outline>
    <contour>
      <point x="563" y="-144" type="move" name="mark0"/>
    </contour>
    <contour>
      <point x="404" y="763" type="curve"/>
      <point x="404" y="1205" type="line"/>
      <point x="783" y="1192" type="line"/>
      <point x="831" y="969" type="line"/>
      <point x="936" y="969" type="line"/>
      <point x="920" y="1292" type="line"/>
      <point x="88" y="1292" type="line"/>
      <point x="88" y="1207" type="line"/>
      <point x="243" y="1188" type="line"/>
      <point x="243" y="99" type="line"/>
      <point x="87" y="83" type="line"/>
      <point x="87" y="0" type="line"/>
      <point x="329" y="0" type="line" smooth="yes"/>
      <point x="394" y="0"/>
      <point x="552" y="-14"/>
      <point x="589" y="-14" type="curve" smooth="yes"/>
      <point x="831" y="-14"/>
      <point x="999" y="130"/>
      <point x="999" y="405" type="curve" smooth="yes"/>
      <point x="999" y="644"/>
      <point x="866" y="780"/>
      <point x="605" y="780" type="curve" smooth="yes"/>
      <point x="541" y="780"/>
      <point x="438" y="771"/>
    </contour>
    <contour>
      <point x="404" y="95" type="curve"/>
      <point x="404" y="669" type="line"/>
      <point x="430" y="674"/>
      <point x="503" y="678"/>
      <point x="560" y="678" type="curve" smooth="yes"/>
      <point x="730" y="678"/>
      <point x="829" y="591"/>
      <point x="829" y="393" type="curve" smooth="yes"/>
      <point x="829" y="189"/>
      <point x="734" y="79"/>
      <point x="558" y="79" type="curve" smooth="yes"/>
      <point x="472" y="79"/>
      <point x="442" y="89"/>
    </contour>
  </outline>
</glyph>
<glyph name="che-cy.sc" format="1">
  <advance width="1088"/>
  <outline>
    <contour>
      <point x="507" y="1273" type="move" name="top"/>
    </contour>
    <contour>
      <point x="548" y="648" type="move" name="center"/>
    </contour>
    <contour>
      <point x="1052" y="0" type="move" name="bottomright"/>
    </contour>
    <contour>
      <point x="716" y="571" type="curve"/>
      <point x="716" y="101" type="line"/>
      <point x="554" y="83" type="line"/>
      <point x="554" y="0" type="line"/>
      <point x="1014" y="0" type="line"/>
      <point x="1014" y="83" type="line"/>
      <point x="877" y="101" type="line"/>
      <point x="877" y="1188" type="line"/>
      <point x="1013" y="1207" type="line"/>
      <point x="1013" y="1292" type="line"/>
      <point x="578" y="1292" type="line"/>
      <point x="578" y="1207" type="line"/>
      <point x="716" y="1188" type="line"/>
      <point x="716" y="667" type="line"/>
      <point x="674" y="639"/>
      <point x="569" y="613"/>
      <point x="489" y="613" type="curve" smooth="yes"/>
      <point x="298" y="613"/>
      <point x="276" y="669"/>
      <point x="276" y="946" type="curve" smooth="yes"/>
      <point x="276" y="1187" type="line"/>
      <point x="409" y="1207" type="line"/>
      <point x="409" y="1292" type="line"/>
      <point x="20" y="1292" type="line"/>
      <point x="20" y="1207" type="line"/>
      <point x="115" y="1186" type="line"/>
      <point x="115" y="893" type="line" smooth="yes"/>
      <point x="115" y="632"/>
      <point x="179" y="497"/>
      <point x="416" y="497" type="curve" smooth="yes"/>
      <point x="509" y="497"/>
      <point x="640" y="523"/>
    </contour>
  </outline>
</glyph>
<glyph name="cheabkhasian-cy.sc" format="1">
  <advance width="1247"/>
  <outline>
    <contour>
      <point x="1143" y="46" type="curve"/>
      <point x="1149" y="304" type="line"/>
      <point x="1042" y="307" type="line"/>
      <point x="1012" y="167" type="line"/>
      <point x="970" y="119"/>
      <point x="903" y="74"/>
      <point x="766" y="74" type="curve" smooth="yes"/>
      <point x="553" y="74"/>
      <point x="437" y="328"/>
      <point x="435" y="621" type="curve"/>
      <point x="1168" y="619" type="line"/>
      <point x="1175" y="655"/>
      <point x="1178" y="716"/>
      <point x="1178" y="794" type="curve" smooth="yes"/>
      <point x="1176" y="1126"/>
      <point x="1007" y="1306"/>
      <point x="775" y="1306" type="curve" smooth="yes"/>
      <point x="512" y="1306"/>
      <point x="301" y="1074"/>
      <point x="275" y="713" type="curve"/>
      <point x="166" y="715"/>
      <point x="140" y="768"/>
      <point x="140" y="816" type="curve" smooth="yes"/>
      <point x="140" y="848"/>
      <point x="163" y="917"/>
      <point x="174" y="933" type="curve"/>
      <point x="61" y="955" type="line"/>
      <point x="43" y="943"/>
      <point x="11" y="868"/>
      <point x="11" y="808" type="curve" smooth="yes"/>
      <point x="11" y="680"/>
      <point x="131" y="619"/>
      <point x="272" y="618" type="curve"/>
      <point x="275" y="233"/>
      <point x="461" y="-20"/>
      <point x="739" y="-20" type="curve" smooth="yes"/>
      <point x="957" y="-20"/>
      <point x="1056" y="44"/>
    </contour>
    <contour>
      <point x="1007" y="713" type="curve"/>
      <point x="433" y="713" type="line"/>
      <point x="442" y="1071"/>
      <point x="584" y="1206"/>
      <point x="743" y="1206" type="curve" smooth="yes"/>
      <point x="938" y="1206"/>
      <point x="1012" y="990"/>
      <point x="1012" y="803" type="curve" smooth="yes"/>
      <point x="1013" y="772"/>
      <point x="1011" y="742"/>
    </contour>
  </outline>
</glyph>
<glyph name="chedescender-cy.sc" format="1">
  <advance width="1103"/>
  <outline>
    <contour>
      <point x="1053" y="101" type="curve"/>
      <point x="878" y="101" type="line"/>
      <point x="878" y="1188" type="line"/>
      <point x="1014" y="1207" type="line"/>
      <point x="1014" y="1292" type="line"/>
      <point x="579" y="1292" type="line"/>
      <point x="579" y="1207" type="line"/>
      <point x="718" y="1188" type="line"/>
      <point x="718" y="667" type="line"/>
      <point x="675" y="639"/>
      <point x="570" y="613"/>
      <point x="490" y="613" type="curve" smooth="yes"/>
      <point x="299" y="613"/>
      <point x="277" y="669"/>
      <point x="277" y="946" type="curve" smooth="yes"/>
      <point x="277" y="1187" type="line"/>
      <point x="410" y="1207" type="line"/>
      <point x="410" y="1292" type="line"/>
      <point x="22" y="1292" type="line"/>
      <point x="22" y="1207" type="line"/>
      <point x="116" y="1186" type="line"/>
      <point x="116" y="893" type="line" smooth="yes"/>
      <point x="116" y="632"/>
      <point x="180" y="497"/>
      <point x="417" y="497" type="curve" smooth="yes"/>
      <point x="511" y="497"/>
      <point x="641" y="523"/>
      <point x="718" y="571" type="curve"/>
      <point x="718" y="101" type="line"/>
      <point x="555" y="83" type="line"/>
      <point x="555" y="0" type="line"/>
      <point x="893" y="0" type="line"/>
      <point x="898" y="-16"/>
      <point x="913" y="-284"/>
      <point x="913" y="-323" type="curve"/>
      <point x="1013" y="-323" type="line"/>
      <point x="1025" y="-204"/>
      <point x="1042" y="-35"/>
    </contour>
  </outline>
</glyph>
<glyph name="chekhakassian-cy.sc" format="1">
  <advance width="1097"/>
  <outline>
    <contour>
      <point x="524" y="-144" type="move" name="mark0"/>
    </contour>
    <contour>
      <point x="700" y="0" type="curve"/>
      <point x="1016" y="0" type="line"/>
      <point x="1016" y="83" type="line"/>
      <point x="878" y="101" type="line"/>
      <point x="878" y="1188" type="line"/>
      <point x="1014" y="1207" type="line"/>
      <point x="1014" y="1292" type="line"/>
      <point x="579" y="1292" type="line"/>
      <point x="579" y="1207" type="line"/>
      <point x="718" y="1188" type="line"/>
      <point x="718" y="667" type="line"/>
      <point x="675" y="639"/>
      <point x="570" y="613"/>
      <point x="490" y="613" type="curve" smooth="yes"/>
      <point x="299" y="613"/>
      <point x="277" y="669"/>
      <point x="277" y="946" type="curve" smooth="yes"/>
      <point x="277" y="1187" type="line"/>
      <point x="410" y="1207" type="line"/>
      <point x="410" y="1292" type="line"/>
      <point x="22" y="1292" type="line"/>
      <point x="22" y="1207" type="line"/>
      <point x="116" y="1186" type="line"/>
      <point x="116" y="893" type="line" smooth="yes"/>
      <point x="116" y="632"/>
      <point x="180" y="497"/>
      <point x="417" y="497" type="curve" smooth="yes"/>
      <point x="511" y="497"/>
      <point x="641" y="523"/>
      <point x="718" y="571" type="curve"/>
      <point x="718" y="103" type="line"/>
      <point x="552" y="103" type="line"/>
      <point x="550" y="66"/>
      <point x="534" y="-307"/>
      <point x="534" y="-323" type="curve"/>
      <point x="635" y="-323" type="line"/>
      <point x="643" y="-283"/>
      <point x="692" y="-15"/>
    </contour>
  </outline>
</glyph>
<glyph name="cheverticalstroke-cy.sc" format="1">
  <advance width="1105"/>
  <outline>
    <contour>
      <point x="539" y="-144" type="move" name="mark0"/>
    </contour>
    <contour>
      <point x="733" y="567" type="curve"/>
      <point x="733" y="102" type="line"/>
      <point x="569" y="85" type="line"/>
      <point x="569" y="0" type="line"/>
      <point x="1032" y="0" type="line"/>
      <point x="1032" y="83" type="line"/>
      <point x="895" y="101" type="line"/>
      <point x="895" y="1188" type="line"/>
      <point x="1032" y="1207" type="line"/>
      <point x="1032" y="1292" type="line"/>
      <point x="594" y="1292" type="line"/>
      <point x="594" y="1209" type="line"/>
      <point x="733" y="1189" type="line"/>
      <point x="733" y="667" type="line"/>
      <point x="699" y="645"/>
      <point x="624" y="624"/>
      <point x="551" y="615" type="curve"/>
      <point x="551" y="879" type="line"/>
      <point x="467" y="879" type="line"/>
      <point x="467" y="613" type="line"/>
      <point x="305" y="615"/>
      <point x="279" y="673"/>
      <point x="279" y="946" type="curve" smooth="yes"/>
      <point x="279" y="1187" type="line"/>
      <point x="415" y="1209" type="line"/>
      <point x="415" y="1292" type="line"/>
      <point x="22" y="1292" type="line"/>
      <point x="22" y="1209" type="line"/>
      <point x="119" y="1187" type="line"/>
      <point x="119" y="893" type="line" smooth="yes"/>
      <point x="119" y="624"/>
      <point x="190" y="497"/>
      <point x="425" y="497" type="curve" smooth="yes"/>
      <point x="437" y="497"/>
      <point x="452" y="497"/>
      <point x="467" y="499" type="curve"/>
      <point x="467" y="307" type="line"/>
      <point x="551" y="307" type="line"/>
      <point x="551" y="506" type="line"/>
      <point x="618" y="518"/>
      <point x="682" y="536"/>
    </contour>
  </outline>
</glyph>
<glyph name="de-cy.sc" format="1">
  <advance width="1159"/>
  <outline>
    <contour>
      <point x="1074" y="101" type="curve"/>
      <point x="935" y="101" type="line"/>
      <point x="935" y="1188" type="line"/>
      <point x="1082" y="1207" type="line"/>
      <point x="1082" y="1292" type="line"/>
      <point x="210" y="1292" type="line"/>
      <point x="210" y="1207" type="line"/>
      <point x="368" y="1188" type="line"/>
      <point x="368" y="1078" type="line" smooth="yes"/>
      <point x="368" y="470"/>
      <point x="221" y="173"/>
      <point x="171" y="101" type="curve"/>
      <point x="57" y="101" type="line"/>
      <point x="55" y="65"/>
      <point x="41" y="-307"/>
      <point x="40" y="-323" type="curve"/>
      <point x="140" y="-323" type="line"/>
      <point x="148" y="-276"/>
      <point x="198" y="-8"/>
      <point x="205" y="0" type="curve"/>
      <point x="914" y="0" type="line"/>
      <point x="920" y="-15"/>
      <point x="939" y="-289"/>
      <point x="940" y="-323" type="curve"/>
      <point x="1039" y="-323" type="line"/>
      <point x="1042" y="-313"/>
      <point x="1074" y="81"/>
    </contour>
    <contour>
      <point x="463" y="1068" type="curve"/>
      <point x="463" y="1193" type="line"/>
      <point x="775" y="1193" type="line"/>
      <point x="774" y="101" type="line"/>
      <point x="302" y="101" type="line"/>
      <point x="349" y="186"/>
      <point x="465" y="525"/>
    </contour>
  </outline>
</glyph>
<glyph name="dje-cy.sc" format="1">
  <advance width="1312"/>
  <outline>
    <contour>
      <point x="524" y="-144" type="move" name="mark0"/>
    </contour>
    <contour>
      <point x="643" y="673" type="curve"/>
      <point x="643" y="1205" type="line"/>
      <point x="951" y="1188" type="line"/>
      <point x="984" y="883" type="line"/>
      <point x="1083" y="883" type="line"/>
      <point x="1082" y="1292" type="line"/>
      <point x="83" y="1292" type="line"/>
      <point x="61" y="883" type="line"/>
      <point x="163" y="883" type="line"/>
      <point x="206" y="1188" type="line"/>
      <point x="477" y="1205" type="line"/>
      <point x="477" y="103" type="line"/>
      <point x="269" y="85" type="line"/>
      <point x="269" y="0" type="line"/>
      <point x="814" y="0" type="line"/>
      <point x="814" y="85" type="line"/>
      <point x="643" y="102" type="line"/>
      <point x="643" y="583" type="line"/>
      <point x="714" y="620"/>
      <point x="781" y="637"/>
      <point x="863" y="637" type="curve" smooth="yes"/>
      <point x="1032" y="637"/>
      <point x="1087" y="520"/>
      <point x="1087" y="283" type="curve" smooth="yes"/>
      <point x="1087" y="-58"/>
      <point x="1022" y="-244"/>
      <point x="861" y="-244" type="curve" smooth="yes"/>
      <point x="823" y="-244"/>
      <point x="796" y="-239"/>
      <point x="784" y="-237" type="curve"/>
      <point x="787" y="-330" type="line"/>
      <point x="805" y="-340"/>
      <point x="854" y="-347"/>
      <point x="886" y="-347" type="curve" smooth="yes"/>
      <point x="1122" y="-347"/>
      <point x="1252" y="-69"/>
      <point x="1252" y="303" type="curve" smooth="yes"/>
      <point x="1252" y="565"/>
      <point x="1179" y="743"/>
      <point x="902" y="743" type="curve" smooth="yes"/>
      <point x="837" y="743"/>
      <point x="702" y="715"/>
    </contour>
  </outline>
</glyph>
<glyph name="dzeabkhasian-cy.sc" format="1">
  <advance width="1012"/>
  <outline>
    <contour>
      <point x="515" y="738" type="curve"/>
      <point x="884" y="1208" type="line"/>
      <point x="884" y="1292" type="line"/>
      <point x="148" y="1292" type="line"/>
      <point x="164" y="987" type="line"/>
      <point x="264" y="987" type="line"/>
      <point x="290" y="1171" type="line"/>
      <point x="701" y="1177" type="line"/>
      <point x="685" y="1154"/>
      <point x="392" y="762"/>
      <point x="367" y="727" type="curve"/>
      <point x="390" y="662" type="line"/>
      <point x="411" y="662"/>
      <point x="434" y="662"/>
      <point x="454" y="662" type="curve"/>
      <point x="681" y="652"/>
      <point x="746" y="551"/>
      <point x="746" y="382" type="curve" smooth="yes"/>
      <point x="746" y="223"/>
      <point x="646" y="87"/>
      <point x="451" y="87" type="curve" smooth="yes"/>
      <point x="336" y="87"/>
      <point x="294" y="119"/>
      <point x="281" y="128" type="curve"/>
      <point x="244" y="340" type="line"/>
      <point x="151" y="340" type="line"/>
      <point x="121" y="53" type="line"/>
      <point x="163" y="38"/>
      <point x="274" y="-12"/>
      <point x="440" y="-12" type="curve" smooth="yes"/>
      <point x="746" y="-12"/>
      <point x="921" y="158"/>
      <point x="921" y="410" type="curve" smooth="yes"/>
      <point x="921" y="627"/>
      <point x="814" y="743"/>
      <point x="602" y="743" type="curve" smooth="yes"/>
      <point x="571" y="743"/>
      <point x="544" y="741"/>
    </contour>
  </outline>
</glyph>
<glyph name="dzhe-cy.sc" format="1">
  <advance width="1263"/>
  <outline>
    <contour>
      <point x="723" y="0" type="curve"/>
      <point x="1179" y="0" type="line"/>
      <point x="1179" y="83" type="line"/>
      <point x="1044" y="99" type="line"/>
      <point x="1044" y="1188" type="line"/>
      <point x="1165" y="1207" type="line"/>
      <point x="1165" y="1292" type="line"/>
      <point x="753" y="1292" type="line"/>
      <point x="753" y="1207" type="line"/>
      <point x="884" y="1188" type="line"/>
      <point x="884" y="96" type="line"/>
      <point x="378" y="96" type="line"/>
      <point x="378" y="1188" type="line"/>
      <point x="523" y="1207" type="line"/>
      <point x="523" y="1292" type="line"/>
      <point x="91" y="1292" type="line"/>
      <point x="91" y="1207" type="line"/>
      <point x="218" y="1188" type="line"/>
      <point x="218" y="101" type="line"/>
      <point x="85" y="83" type="line"/>
      <point x="85" y="0" type="line"/>
      <point x="556" y="0" type="line"/>
      <point x="559" y="-5"/>
      <point x="587" y="-299"/>
      <point x="587" y="-323" type="curve"/>
      <point x="694" y="-323" type="line"/>
      <point x="700" y="-210"/>
      <point x="713" y="-88"/>
    </contour>
  </outline>
</glyph>
<glyph name="e-cy.sc" format="1">
  <advance width="1041"/>
  <outline>
    <contour>
      <point x="609" y="0" type="move" name="mark0"/>
    </contour>
    <contour>
      <point x="933" y="46" type="curve"/>
      <point x="965" y="304" type="line"/>
      <point x="870" y="312" type="line"/>
      <point x="805" y="134" type="line"/>
      <point x="767" y="101"/>
      <point x="723" y="74"/>
      <point x="606" y="74" type="curve" smooth="yes"/>
      <point x="382" y="74"/>
      <point x="269" y="327"/>
      <point x="255" y="608" type="curve"/>
      <point x="763" y="592" type="line"/>
      <point x="763" y="729" type="line"/>
      <point x="255" y="713" type="line"/>
      <point x="268" y="1035"/>
      <point x="412" y="1214"/>
      <point x="603" y="1214" type="curve" smooth="yes"/>
      <point x="721" y="1214"/>
      <point x="768" y="1188"/>
      <point x="801" y="1162" type="curve"/>
      <point x="839" y="952" type="line"/>
      <point x="944" y="952" type="line"/>
      <point x="955" y="1250" type="line"/>
      <point x="890" y="1262"/>
      <point x="766" y="1306"/>
      <point x="622" y="1306" type="curve" smooth="yes"/>
      <point x="302" y="1306"/>
      <point x="66" y="1036"/>
      <point x="66" y="647" type="curve" smooth="yes"/>
      <point x="66" y="250"/>
      <point x="263" y="-20"/>
      <point x="597" y="-20" type="curve" smooth="yes"/>
      <point x="784" y="-20"/>
      <point x="850" y="42"/>
    </contour>
  </outline>
</glyph>
<glyph name="ef-cy.sc" format="1">
  <advance width="1211"/>
  <outline>
    <contour>
      <point x="605" y="-144" type="move" name="mark0"/>
    </contour>
    <contour>
      <point x="681" y="1100" type="curve"/>
      <point x="681" y="1223" type="line"/>
      <point x="829" y="1243" type="line"/>
      <point x="829" y="1328" type="line"/>
      <point x="380" y="1328" type="line"/>
      <point x="380" y="1243" type="line"/>
      <point x="529" y="1223" type="line"/>
      <point x="529" y="1100" type="line"/>
      <point x="211" y="1081"/>
      <point x="41" y="900"/>
      <point x="41" y="662" type="curve" smooth="yes"/>
      <point x="41" y="443"/>
      <point x="123" y="216"/>
      <point x="529" y="204" type="curve"/>
      <point x="529" y="71" type="line"/>
      <point x="381" y="49" type="line"/>
      <point x="381" y="-36" type="line"/>
      <point x="831" y="-36" type="line"/>
      <point x="831" y="47" type="line"/>
      <point x="681" y="69" type="line"/>
      <point x="681" y="205" type="line"/>
      <point x="990" y="224"/>
      <point x="1169" y="417"/>
      <point x="1169" y="657" type="curve" smooth="yes"/>
      <point x="1169" y="884"/>
      <point x="1086" y="1089"/>
    </contour>
    <contour>
      <point x="529" y="1030" type="curve"/>
      <point x="529" y="280" type="line"/>
      <point x="269" y="302"/>
      <point x="218" y="495"/>
      <point x="218" y="671" type="curve" smooth="yes"/>
      <point x="218" y="849"/>
      <point x="274" y="1012"/>
    </contour>
    <contour>
      <point x="681" y="279" type="curve"/>
      <point x="681" y="1028" type="line"/>
      <point x="948" y="1005"/>
      <point x="991" y="824"/>
      <point x="991" y="655" type="curve" smooth="yes"/>
      <point x="991" y="460"/>
      <point x="929" y="299"/>
    </contour>
  </outline>
</glyph>
<glyph name="el-cy.sc" format="1">
  <advance width="1168"/>
  <outline>
    <contour>
      <point x="465" y="-144" type="move" name="mark0"/>
    </contour>
    <contour>
      <point x="470" y="1027" type="curve" smooth="yes"/>
      <point x="470" y="1188" type="line"/>
      <point x="785" y="1188" type="line"/>
      <point x="784" y="101" type="line"/>
      <point x="625" y="83" type="line"/>
      <point x="625" y="0" type="line"/>
      <point x="1098" y="0" type="line"/>
      <point x="1098" y="83" type="line"/>
      <point x="944" y="99" type="line"/>
      <point x="944" y="1188" type="line"/>
      <point x="1089" y="1207" type="line"/>
      <point x="1089" y="1292" type="line"/>
      <point x="198" y="1292" type="line"/>
      <point x="198" y="1207" type="line"/>
      <point x="375" y="1188" type="line"/>
      <point x="375" y="1046" type="line" smooth="yes"/>
      <point x="375" y="588"/>
      <point x="331" y="327"/>
      <point x="257" y="199" type="curve"/>
      <point x="233" y="152"/>
      <point x="206" y="132"/>
      <point x="166" y="132" type="curve" smooth="yes"/>
      <point x="106" y="132"/>
      <point x="72" y="136"/>
      <point x="50" y="140" type="curve"/>
      <point x="60" y="0" type="line"/>
      <point x="82" y="-4"/>
      <point x="122" y="-10"/>
      <point x="171" y="-10" type="curve" smooth="yes"/>
      <point x="245" y="-10"/>
      <point x="300" y="28"/>
      <point x="344" y="115" type="curve" smooth="yes"/>
      <point x="426" y="273"/>
      <point x="470" y="606"/>
    </contour>
  </outline>
</glyph>
<glyph name="eldescender-cy.sc" format="1">
  <advance width="1189"/>
  <outline>
    <contour>
      <point x="1125" y="101" type="curve"/>
      <point x="944" y="101" type="line"/>
      <point x="944" y="1188" type="line"/>
      <point x="1089" y="1207" type="line"/>
      <point x="1089" y="1292" type="line"/>
      <point x="198" y="1292" type="line"/>
      <point x="198" y="1207" type="line"/>
      <point x="375" y="1188" type="line"/>
      <point x="375" y="1046" type="line" smooth="yes"/>
      <point x="375" y="588"/>
      <point x="331" y="327"/>
      <point x="257" y="199" type="curve"/>
      <point x="233" y="152"/>
      <point x="206" y="132"/>
      <point x="166" y="132" type="curve" smooth="yes"/>
      <point x="106" y="132"/>
      <point x="72" y="136"/>
      <point x="50" y="140" type="curve"/>
      <point x="60" y="0" type="line"/>
      <point x="82" y="-4"/>
      <point x="122" y="-10"/>
      <point x="171" y="-10" type="curve" smooth="yes"/>
      <point x="245" y="-10"/>
      <point x="300" y="28"/>
      <point x="344" y="115" type="curve" smooth="yes"/>
      <point x="426" y="273"/>
      <point x="470" y="606"/>
      <point x="470" y="1027" type="curve" smooth="yes"/>
      <point x="470" y="1188" type="line"/>
      <point x="785" y="1188" type="line"/>
      <point x="784" y="101" type="line"/>
      <point x="625" y="83" type="line"/>
      <point x="625" y="0" type="line"/>
      <point x="964" y="0" type="line"/>
      <point x="969" y="-16"/>
      <point x="985" y="-280"/>
      <point x="986" y="-323" type="curve"/>
      <point x="1084" y="-323" type="line"/>
      <point x="1087" y="-315"/>
      <point x="1125" y="76"/>
    </contour>
  </outline>
</glyph>
<glyph name="elhook-cy.sc" format="1">
  <advance width="1159"/>
  <outline>
    <contour>
      <point x="944" y="478" type="curve" smooth="yes"/>
      <point x="944" y="1188" type="line"/>
      <point x="1089" y="1207" type="line"/>
      <point x="1089" y="1292" type="line"/>
      <point x="198" y="1292" type="line"/>
      <point x="198" y="1207" type="line"/>
      <point x="375" y="1188" type="line"/>
      <point x="375" y="1046" type="line" smooth="yes"/>
      <point x="375" y="588"/>
      <point x="331" y="327"/>
      <point x="257" y="199" type="curve"/>
      <point x="233" y="152"/>
      <point x="206" y="132"/>
      <point x="166" y="132" type="curve" smooth="yes"/>
      <point x="106" y="132"/>
      <point x="72" y="136"/>
      <point x="50" y="140" type="curve"/>
      <point x="60" y="0" type="line"/>
      <point x="82" y="-4"/>
      <point x="122" y="-10"/>
      <point x="171" y="-10" type="curve" smooth="yes"/>
      <point x="245" y="-10"/>
      <point x="300" y="28"/>
      <point x="344" y="115" type="curve" smooth="yes"/>
      <point x="426" y="273"/>
      <point x="470" y="606"/>
      <point x="470" y="1027" type="curve" smooth="yes"/>
      <point x="470" y="1188" type="line"/>
      <point x="785" y="1188" type="line"/>
      <point x="782" y="416" type="line" smooth="yes"/>
      <point x="781" y="173"/>
      <point x="777" y="84"/>
      <point x="750" y="-14" type="curve" smooth="yes"/>
      <point x="715" y="-134"/>
      <point x="635" y="-210"/>
      <point x="549" y="-238" type="curve"/>
      <point x="590" y="-309" type="line"/>
      <point x="740" y="-280"/>
      <point x="887" y="-167"/>
      <point x="927" y="33" type="curve"/>
      <point x="941" y="122"/>
      <point x="944" y="286"/>
    </contour>
  </outline>
</glyph>
<glyph name="eltail-cy.sc" format="1">
  <advance width="1179"/>
  <outline>
    <contour>
      <point x="468" y="-144" type="move" name="mark0"/>
    </contour>
    <contour>
      <point x="1121" y="0" type="curve"/>
      <point x="1121" y="99" type="line"/>
      <point x="944" y="99" type="line"/>
      <point x="944" y="1188" type="line"/>
      <point x="1089" y="1207" type="line"/>
      <point x="1089" y="1292" type="line"/>
      <point x="198" y="1292" type="line"/>
      <point x="198" y="1207" type="line"/>
      <point x="375" y="1188" type="line"/>
      <point x="375" y="1046" type="line" smooth="yes"/>
      <point x="375" y="588"/>
      <point x="331" y="327"/>
      <point x="257" y="199" type="curve"/>
      <point x="233" y="150"/>
      <point x="203" y="132"/>
      <point x="166" y="132" type="curve" smooth="yes"/>
      <point x="103" y="132"/>
      <point x="72" y="136"/>
      <point x="50" y="140" type="curve"/>
      <point x="60" y="0" type="line"/>
      <point x="82" y="-4"/>
      <point x="122" y="-10"/>
      <point x="171" y="-10" type="curve" smooth="yes"/>
      <point x="245" y="-10"/>
      <point x="299" y="28"/>
      <point x="342" y="113" type="curve" smooth="yes"/>
      <point x="429" y="281"/>
      <point x="470" y="616"/>
      <point x="470" y="1027" type="curve" smooth="yes"/>
      <point x="470" y="1188" type="line"/>
      <point x="785" y="1188" type="line"/>
      <point x="786" y="101" type="line"/>
      <point x="625" y="83" type="line"/>
      <point x="625" y="0" type="line"/>
      <point x="983" y="0" type="line"/>
      <point x="978" y="-23"/>
      <point x="920" y="-301"/>
      <point x="911" y="-323" type="curve"/>
      <point x="1014" y="-323" type="line"/>
      <point x="1021" y="-313"/>
      <point x="1110" y="-18"/>
    </contour>
  </outline>
</glyph>
<glyph name="emtail-cy.sc" format="1">
  <advance width="1579"/>
  <outline>
    <contour>
      <point x="740" y="-144" type="move" name="mark0"/>
    </contour>
    <contour>
      <point x="1587" y="0" type="curve"/>
      <point x="1587" y="96" type="line"/>
      <point x="1430" y="96" type="line"/>
      <point x="1290" y="1188" type="line"/>
      <point x="1448" y="1207" type="line"/>
      <point x="1448" y="1292" type="line"/>
      <point x="1065" y="1292" type="line"/>
      <point x="838" y="434" type="line"/>
      <point x="795" y="213" type="line"/>
      <point x="748" y="434" type="line"/>
      <point x="504" y="1292" type="line"/>
      <point x="109" y="1292" type="line"/>
      <point x="109" y="1207" type="line"/>
      <point x="273" y="1188" type="line"/>
      <point x="148" y="101" type="line"/>
      <point x="15" y="83" type="line"/>
      <point x="15" y="0" type="line"/>
      <point x="419" y="0" type="line"/>
      <point x="419" y="83" type="line"/>
      <point x="270" y="101" type="line"/>
      <point x="338" y="884" type="line"/>
      <point x="365" y="1223" type="line"/>
      <point x="453" y="894" type="line"/>
      <point x="724" y="-14" type="line"/>
      <point x="820" y="-14" type="line"/>
      <point x="1089" y="989" type="line"/>
      <point x="1141" y="1221" type="line"/>
      <point x="1179" y="884" type="line"/>
      <point x="1259" y="101" type="line"/>
      <point x="1123" y="83" type="line"/>
      <point x="1123" y="0" type="line"/>
      <point x="1452" y="0" type="line"/>
      <point x="1445" y="-20"/>
      <point x="1387" y="-302"/>
      <point x="1380" y="-323" type="curve"/>
      <point x="1481" y="-323" type="line"/>
      <point x="1492" y="-305"/>
      <point x="1572" y="-29"/>
    </contour>
  </outline>
</glyph>
<glyph name="endescender-cy.sc" format="1">
  <advance width="1308"/>
  <outline>
    <contour>
      <point x="639" y="-144" type="move" name="mark0"/>
    </contour>
    <contour>
      <point x="1248" y="101" type="curve"/>
      <point x="1090" y="101" type="line"/>
      <point x="1090" y="1188" type="line"/>
      <point x="1214" y="1207" type="line"/>
      <point x="1214" y="1292" type="line"/>
      <point x="801" y="1292" type="line"/>
      <point x="801" y="1207" type="line"/>
      <point x="928" y="1188" type="line"/>
      <point x="928" y="716" type="line"/>
      <point x="379" y="716" type="line"/>
      <point x="379" y="1188" type="line"/>
      <point x="511" y="1207" type="line"/>
      <point x="511" y="1292" type="line"/>
      <point x="95" y="1292" type="line"/>
      <point x="95" y="1207" type="line"/>
      <point x="217" y="1188" type="line"/>
      <point x="217" y="99" type="line"/>
      <point x="90" y="83" type="line"/>
      <point x="90" y="0" type="line"/>
      <point x="513" y="0" type="line"/>
      <point x="513" y="83" type="line"/>
      <point x="379" y="99" type="line"/>
      <point x="379" y="610" type="line"/>
      <point x="928" y="610" type="line"/>
      <point x="928" y="101" type="line"/>
      <point x="800" y="83" type="line"/>
      <point x="800" y="0" type="line"/>
      <point x="1086" y="0" type="line"/>
      <point x="1093" y="-22"/>
      <point x="1107" y="-290"/>
      <point x="1109" y="-323" type="curve"/>
      <point x="1208" y="-323" type="line"/>
      <point x="1210" y="-311"/>
      <point x="1248" y="80"/>
    </contour>
  </outline>
</glyph>
<glyph name="enghe-cy.sc" format="1">
  <advance width="1572"/>
  <outline>
    <contour>
      <point x="92" y="1292" type="line"/>
      <point x="92" y="1207" type="line"/>
      <point x="220" y="1188" type="line"/>
      <point x="220" y="99" type="line"/>
      <point x="87" y="83" type="line"/>
      <point x="87" y="0" type="line"/>
      <point x="522" y="0" type="line"/>
      <point x="522" y="83" type="line"/>
      <point x="381" y="101" type="line"/>
      <point x="381" y="610" type="line"/>
      <point x="930" y="610" type="line"/>
      <point x="930" y="101" type="line"/>
      <point x="797" y="83" type="line"/>
      <point x="797" y="0" type="line"/>
      <point x="1223" y="0" type="line"/>
      <point x="1223" y="83" type="line"/>
      <point x="1092" y="101" type="line"/>
      <point x="1092" y="1205" type="line"/>
      <point x="1352" y="1185" type="line"/>
      <point x="1397" y="860" type="line"/>
      <point x="1505" y="860" type="line"/>
      <point x="1486" y="1292" type="line"/>
      <point x="795" y="1292" type="line"/>
      <point x="795" y="1207" type="line"/>
      <point x="930" y="1188" type="line"/>
      <point x="930" y="716" type="line"/>
      <point x="381" y="716" type="line"/>
      <point x="381" y="1188" type="line"/>
      <point x="522" y="1207" type="line"/>
      <point x="522" y="1292" type="line"/>
    </contour>
  </outline>
</glyph>
<glyph name="enhook-cy.sc" format="1">
  <advance width="1298"/>
  <outline>
    <contour>
      <point x="647" y="-144" type="move" name="mark0"/>
    </contour>
    <contour>
      <point x="1090" y="452" type="curve" smooth="yes"/>
      <point x="1090" y="1188" type="line"/>
      <point x="1220" y="1207" type="line"/>
      <point x="1220" y="1292" type="line"/>
      <point x="801" y="1292" type="line"/>
      <point x="801" y="1207" type="line"/>
      <point x="928" y="1188" type="line"/>
      <point x="928" y="716" type="line"/>
      <point x="379" y="716" type="line"/>
      <point x="379" y="1188" type="line"/>
      <point x="511" y="1207" type="line"/>
      <point x="511" y="1292" type="line"/>
      <point x="95" y="1292" type="line"/>
      <point x="95" y="1207" type="line"/>
      <point x="217" y="1188" type="line"/>
      <point x="217" y="99" type="line"/>
      <point x="90" y="83" type="line"/>
      <point x="90" y="0" type="line"/>
      <point x="513" y="0" type="line"/>
      <point x="513" y="83" type="line"/>
      <point x="379" y="99" type="line"/>
      <point x="379" y="610" type="line"/>
      <point x="926" y="610" type="line"/>
      <point x="926" y="390" type="line" smooth="yes"/>
      <point x="926" y="124"/>
      <point x="925" y="21"/>
      <point x="895" y="-62" type="curve"/>
      <point x="858" y="-155"/>
      <point x="781" y="-215"/>
      <point x="693" y="-239" type="curve"/>
      <point x="731" y="-314" type="line"/>
      <point x="881" y="-286"/>
      <point x="1032" y="-184"/>
      <point x="1072" y="-23" type="curve"/>
      <point x="1090" y="87"/>
      <point x="1090" y="211"/>
    </contour>
  </outline>
</glyph>
<glyph name="enlefthook-cy.sc" format="1">
  <advance width="1291"/>
  <outline>
    <contour>
      <point x="399" y="478" type="curve" smooth="yes"/>
      <point x="399" y="610" type="line"/>
      <point x="931" y="610" type="line"/>
      <point x="931" y="101" type="line"/>
      <point x="802" y="83" type="line"/>
      <point x="802" y="0" type="line"/>
      <point x="1217" y="0" type="line"/>
      <point x="1217" y="83" type="line"/>
      <point x="1093" y="99" type="line"/>
      <point x="1093" y="1188" type="line"/>
      <point x="1212" y="1207" type="line"/>
      <point x="1212" y="1292" type="line"/>
      <point x="804" y="1292" type="line"/>
      <point x="804" y="1207" type="line"/>
      <point x="931" y="1188" type="line"/>
      <point x="931" y="716" type="line"/>
      <point x="399" y="716" type="line"/>
      <point x="399" y="1188" type="line"/>
      <point x="531" y="1207" type="line"/>
      <point x="531" y="1292" type="line"/>
      <point x="114" y="1292" type="line"/>
      <point x="114" y="1207" type="line"/>
      <point x="237" y="1188" type="line"/>
      <point x="237" y="416" type="line" smooth="yes"/>
      <point x="237" y="197"/>
      <point x="235" y="90"/>
      <point x="206" y="-16" type="curve" smooth="yes"/>
      <point x="172" y="-132"/>
      <point x="91" y="-210"/>
      <point x="5" y="-238" type="curve"/>
      <point x="45" y="-309" type="line"/>
      <point x="200" y="-278"/>
      <point x="341" y="-164"/>
      <point x="382" y="33" type="curve"/>
      <point x="398" y="136"/>
      <point x="399" y="282"/>
    </contour>
  </outline>
</glyph>
<glyph name="entail-cy.sc" format="1">
  <advance width="1305"/>
  <outline>
    <contour>
      <point x="1241" y="0" type="curve"/>
      <point x="1241" y="99" type="line"/>
      <point x="1091" y="99" type="line"/>
      <point x="1091" y="1188" type="line"/>
      <point x="1215" y="1207" type="line"/>
      <point x="1215" y="1292" type="line"/>
      <point x="801" y="1292" type="line"/>
      <point x="801" y="1207" type="line"/>
      <point x="927" y="1188" type="line"/>
      <point x="927" y="716" type="line"/>
      <point x="380" y="716" type="line"/>
      <point x="380" y="1188" type="line"/>
      <point x="512" y="1207" type="line"/>
      <point x="512" y="1292" type="line"/>
      <point x="94" y="1292" type="line"/>
      <point x="94" y="1207" type="line"/>
      <point x="217" y="1188" type="line"/>
      <point x="217" y="99" type="line"/>
      <point x="89" y="83" type="line"/>
      <point x="89" y="0" type="line"/>
      <point x="513" y="0" type="line"/>
      <point x="513" y="83" type="line"/>
      <point x="380" y="101" type="line"/>
      <point x="380" y="610" type="line"/>
      <point x="927" y="610" type="line"/>
      <point x="927" y="101" type="line"/>
      <point x="800" y="83" type="line"/>
      <point x="800" y="0" type="line"/>
      <point x="1105" y="0" type="line"/>
      <point x="1081" y="-98"/>
      <point x="1052" y="-216"/>
      <point x="1026" y="-323" type="curve"/>
      <point x="1129" y="-323" type="line"/>
      <point x="1138" y="-310"/>
      <point x="1230" y="-23"/>
    </contour>
  </outline>
</glyph>
<glyph name="ereversed-cy.sc" format="1">
  <advance width="1089"/>
  <outline>
    <contour>
      <point x="566" y="1273" type="move" name="top"/>
    </contour>
    <contour>
      <point x="141" y="1240" type="curve"/>
      <point x="140" y="967" type="line"/>
      <point x="248" y="967" type="line"/>
      <point x="289" y="1131" type="line"/>
      <point x="324" y="1166"/>
      <point x="373" y="1213"/>
      <point x="494" y="1213" type="curve" smooth="yes"/>
      <point x="711" y="1213"/>
      <point x="815" y="981"/>
      <point x="834" y="716" type="curve"/>
      <point x="329" y="732" type="line"/>
      <point x="329" y="594" type="line"/>
      <point x="838" y="608" type="line"/>
      <point x="834" y="269"/>
      <point x="695" y="76"/>
      <point x="501" y="76" type="curve" smooth="yes"/>
      <point x="380" y="76"/>
      <point x="323" y="119"/>
      <point x="289" y="149" type="curve"/>
      <point x="226" y="317" type="line"/>
      <point x="122" y="298" type="line"/>
      <point x="151" y="46" type="line"/>
      <point x="233" y="45"/>
      <point x="312" y="-20"/>
      <point x="478" y="-20" type="curve" smooth="yes"/>
      <point x="805" y="-20"/>
      <point x="1024" y="245"/>
      <point x="1024" y="637" type="curve" smooth="yes"/>
      <point x="1024" y="1032"/>
      <point x="837" y="1306"/>
      <point x="504" y="1306" type="curve" smooth="yes"/>
      <point x="303" y="1306"/>
      <point x="227" y="1244"/>
    </contour>
  </outline>
</glyph>
<glyph name="ertick-cy.sc" format="1">
  <advance width="1029"/>
  <outline>
    <contour>
      <point x="527" y="-144" type="move" name="mark0"/>
    </contour>
    <contour>
      <point x="300" y="1292" type="curve" smooth="yes"/>
      <point x="97" y="1292" type="line"/>
      <point x="97" y="1207" type="line"/>
      <point x="217" y="1188" type="line"/>
      <point x="217" y="99" type="line"/>
      <point x="88" y="83" type="line"/>
      <point x="88" y="0" type="line"/>
      <point x="591" y="0" type="line"/>
      <point x="591" y="83" type="line"/>
      <point x="380" y="101" type="line"/>
      <point x="380" y="490" type="line"/>
      <point x="394" y="487"/>
      <point x="477" y="483"/>
      <point x="529" y="483" type="curve" smooth="yes"/>
      <point x="593" y="483"/>
      <point x="651" y="493"/>
      <point x="706" y="511" type="curve"/>
      <point x="849" y="316" type="line"/>
      <point x="913" y="367" type="line"/>
      <point x="781" y="548" type="line"/>
      <point x="897" y="618"/>
      <point x="976" y="748"/>
      <point x="976" y="934" type="curve" smooth="yes"/>
      <point x="976" y="1168"/>
      <point x="878" y="1304"/>
      <point x="567" y="1304" type="curve" smooth="yes"/>
      <point x="436" y="1304"/>
      <point x="393" y="1292"/>
    </contour>
    <contour>
      <point x="704" y="646" type="curve"/>
      <point x="594" y="795" type="line"/>
      <point x="529" y="744" type="line"/>
      <point x="639" y="597" type="line"/>
      <point x="602" y="581"/>
      <point x="565" y="575"/>
      <point x="530" y="575" type="curve" smooth="yes"/>
      <point x="466" y="575"/>
      <point x="408" y="577"/>
      <point x="379" y="583" type="curve"/>
      <point x="379" y="1204" type="line"/>
      <point x="417" y="1204"/>
      <point x="460" y="1214"/>
      <point x="531" y="1214" type="curve" smooth="yes"/>
      <point x="716" y="1214"/>
      <point x="807" y="1137"/>
      <point x="807" y="932" type="curve" smooth="yes"/>
      <point x="807" y="786"/>
      <point x="765" y="696"/>
    </contour>
  </outline>
</glyph>
<glyph name="esdescender-cy.sc" format="1">
  <advance width="1034"/>
  <outline>
    <contour>
      <point x="930" y="46" type="curve"/>
      <point x="965" y="292" type="line"/>
      <point x="871" y="304" type="line"/>
      <point x="806" y="136" type="line"/>
      <point x="770" y="101"/>
      <point x="723" y="73"/>
      <point x="603" y="73" type="curve" smooth="yes"/>
      <point x="362" y="73"/>
      <point x="249" y="351"/>
      <point x="249" y="665" type="curve" smooth="yes"/>
      <point x="249" y="1021"/>
      <point x="398" y="1215"/>
      <point x="594" y="1215" type="curve" smooth="yes"/>
      <point x="704" y="1215"/>
      <point x="776" y="1190"/>
      <point x="801" y="1164" type="curve"/>
      <point x="841" y="947" type="line"/>
      <point x="942" y="947" type="line"/>
      <point x="956" y="1255" type="line"/>
      <point x="900" y="1266"/>
      <point x="761" y="1306"/>
      <point x="620" y="1306" type="curve" smooth="yes"/>
      <point x="306" y="1306"/>
      <point x="65" y="1043"/>
      <point x="65" y="649" type="curve" smooth="yes"/>
      <point x="65" y="290"/>
      <point x="215" y="29"/>
      <point x="510" y="-14" type="curve"/>
      <point x="517" y="-69"/>
      <point x="540" y="-299"/>
      <point x="540" y="-323" type="curve"/>
      <point x="646" y="-323" type="line"/>
      <point x="665" y="-41"/>
      <point x="664" y="-114"/>
      <point x="673" y="-14" type="curve"/>
      <point x="804" y="-3"/>
      <point x="856" y="42"/>
    </contour>
  </outline>
</glyph>
<glyph name="fita-cy.sc" format="1">
  <advance width="1143"/>
  <outline>
    <contour>
      <point x="562" y="-20" type="curve" smooth="yes"/>
      <point x="857" y="-14"/>
      <point x="1078" y="253"/>
      <point x="1078" y="661" type="curve" smooth="yes"/>
      <point x="1078" y="1050"/>
      <point x="913" y="1308"/>
      <point x="586" y="1308" type="curve" smooth="yes"/>
      <point x="290" y="1308"/>
      <point x="67" y="1048"/>
      <point x="67" y="639" type="curve" smooth="yes"/>
      <point x="67" y="248"/>
      <point x="236" y="-26"/>
    </contour>
    <contour>
      <point x="569" y="70" type="curve" smooth="yes"/>
      <point x="383" y="70"/>
      <point x="265" y="257"/>
      <point x="247" y="564" type="curve"/>
      <point x="281" y="597"/>
      <point x="335" y="658"/>
      <point x="406" y="658" type="curve" smooth="yes"/>
      <point x="489" y="658"/>
      <point x="588" y="546"/>
      <point x="707" y="546" type="curve" smooth="yes"/>
      <point x="791" y="546"/>
      <point x="854" y="597"/>
      <point x="896" y="651" type="curve"/>
      <point x="893" y="281"/>
      <point x="775" y="70"/>
    </contour>
    <contour>
      <point x="246" y="670" type="curve"/>
      <point x="251" y="1039"/>
      <point x="383" y="1218"/>
      <point x="574" y="1218" type="curve" smooth="yes"/>
      <point x="756" y="1218"/>
      <point x="872" y="1046"/>
      <point x="892" y="754" type="curve"/>
      <point x="860" y="723"/>
      <point x="805" y="662"/>
      <point x="734" y="662" type="curve" smooth="yes"/>
      <point x="644" y="662"/>
      <point x="549" y="775"/>
      <point x="431" y="775" type="curve" smooth="yes"/>
      <point x="352" y="775"/>
      <point x="291" y="727"/>
    </contour>
  </outline>
</glyph>
<glyph name="ge-cy.sc" format="1">
  <advance width="916"/>
  <outline>
    <contour>
      <point x="560" y="1273" type="move" name="top"/>
    </contour>
    <contour>
      <point x="459" y="648" type="move" name="center"/>
    </contour>
    <contour>
      <point x="256" y="0" type="move" name="bottomright"/>
    </contour>
    <contour>
      <point x="62" y="1292" type="line"/>
      <point x="62" y="1209" type="line"/>
      <point x="226" y="1186" type="line"/>
      <point x="226" y="101" type="line"/>
      <point x="56" y="83" type="line"/>
      <point x="56" y="0" type="line"/>
      <point x="661" y="0" type="line"/>
      <point x="661" y="83" type="line"/>
      <point x="391" y="101" type="line"/>
      <point x="391" y="1205" type="line"/>
      <point x="734" y="1192" type="line"/>
      <point x="778" y="839" type="line"/>
      <point x="880" y="839" type="line"/>
      <point x="870" y="1292" type="line"/>
    </contour>
  </outline>
</glyph>
<glyph name="gedescender-cy.sc" format="1">
  <advance width="910"/>
  <outline>
    <contour>
      <point x="510" y="-144" type="move" name="mark0"/>
    </contour>
    <contour>
      <point x="699" y="101" type="curve"/>
      <point x="391" y="101" type="line"/>
      <point x="391" y="1205" type="line"/>
      <point x="734" y="1192" type="line"/>
      <point x="779" y="839" type="line"/>
      <point x="880" y="839" type="line"/>
      <point x="870" y="1292" type="line"/>
      <point x="62" y="1292" type="line"/>
      <point x="62" y="1209" type="line"/>
      <point x="226" y="1186" type="line"/>
      <point x="226" y="101" type="line"/>
      <point x="56" y="83" type="line"/>
      <point x="56" y="0" type="line"/>
      <point x="539" y="0" type="line"/>
      <point x="545" y="-22"/>
      <point x="560" y="-276"/>
      <point x="560" y="-323" type="curve"/>
      <point x="657" y="-323" type="line"/>
      <point x="660" y="-315"/>
      <point x="699" y="70"/>
    </contour>
  </outline>
</glyph>
<glyph name="gestrokehook-cy.sc" format="1">
  <advance width="924"/>
  <outline>
    <contour>
      <point x="658" y="83" type="curve"/>
      <point x="391" y="101" type="line"/>
      <point x="391" y="574" type="line"/>
      <point x="672" y="574" type="line"/>
      <point x="672" y="667" type="line"/>
      <point x="391" y="667" type="line"/>
      <point x="391" y="1205" type="line"/>
      <point x="734" y="1192" type="line"/>
      <point x="778" y="839" type="line"/>
      <point x="880" y="839" type="line"/>
      <point x="870" y="1292" type="line"/>
      <point x="62" y="1292" type="line"/>
      <point x="62" y="1209" type="line"/>
      <point x="226" y="1186" type="line"/>
      <point x="226" y="667" type="line"/>
      <point x="80" y="667" type="line"/>
      <point x="80" y="574" type="line"/>
      <point x="226" y="574" type="line"/>
      <point x="226" y="101" type="line"/>
      <point x="56" y="83" type="line"/>
      <point x="56" y="0" type="line"/>
      <point x="601" y="0" type="line"/>
      <point x="617" y="-55"/>
      <point x="627" y="-110"/>
      <point x="627" y="-151" type="curve" smooth="yes"/>
      <point x="627" y="-257"/>
      <point x="586" y="-292"/>
      <point x="512" y="-292" type="curve" smooth="yes"/>
      <point x="501" y="-292"/>
      <point x="467" y="-288"/>
      <point x="442" y="-278" type="curve"/>
      <point x="441" y="-394" type="line"/>
      <point x="469" y="-407"/>
      <point x="515" y="-417"/>
      <point x="550" y="-417" type="curve" smooth="yes"/>
      <point x="671" y="-417"/>
      <point x="751" y="-351"/>
      <point x="751" y="-218" type="curve" smooth="yes"/>
      <point x="751" y="-126"/>
      <point x="702" y="-10"/>
    </contour>
  </outline>
</glyph>
<glyph name="ghemiddlehook-cy.sc" format="1">
  <advance width="1092"/>
  <outline>
    <contour>
      <point x="421" y="673" type="curve"/>
      <point x="421" y="1205" type="line"/>
      <point x="766" y="1188" type="line"/>
      <point x="808" y="948" type="line"/>
      <point x="910" y="948" type="line"/>
      <point x="900" y="1292" type="line"/>
      <point x="92" y="1292" type="line"/>
      <point x="92" y="1209" type="line"/>
      <point x="256" y="1186" type="line"/>
      <point x="256" y="101" type="line"/>
      <point x="87" y="83" type="line"/>
      <point x="87" y="0" type="line"/>
      <point x="612" y="0" type="line"/>
      <point x="612" y="83" type="line"/>
      <point x="421" y="101" type="line"/>
      <point x="421" y="583" type="line"/>
      <point x="493" y="620"/>
      <point x="563" y="637"/>
      <point x="644" y="637" type="curve" smooth="yes"/>
      <point x="812" y="637"/>
      <point x="867" y="520"/>
      <point x="867" y="283" type="curve" smooth="yes"/>
      <point x="867" y="-58"/>
      <point x="802" y="-244"/>
      <point x="642" y="-244" type="curve" smooth="yes"/>
      <point x="603" y="-244"/>
      <point x="577" y="-239"/>
      <point x="564" y="-237" type="curve"/>
      <point x="567" y="-330" type="line"/>
      <point x="588" y="-340"/>
      <point x="631" y="-347"/>
      <point x="666" y="-347" type="curve" smooth="yes"/>
      <point x="901" y="-347"/>
      <point x="1032" y="-69"/>
      <point x="1032" y="301" type="curve" smooth="yes"/>
      <point x="1032" y="565"/>
      <point x="959" y="743"/>
      <point x="681" y="743" type="curve" smooth="yes"/>
      <point x="618" y="743"/>
      <point x="480" y="715"/>
    </contour>
  </outline>
</glyph>
<glyph name="ghestroke-cy.sc" format="1">
  <advance width="924"/>
  <outline>
    <contour>
      <point x="62" y="1292" type="line"/>
      <point x="62" y="1209" type="line"/>
      <point x="226" y="1186" type="line"/>
      <point x="226" y="667" type="line"/>
      <point x="80" y="667" type="line"/>
      <point x="80" y="574" type="line"/>
      <point x="226" y="574" type="line"/>
      <point x="226" y="101" type="line"/>
      <point x="56" y="83" type="line"/>
      <point x="56" y="0" type="line"/>
      <point x="661" y="0" type="line"/>
      <point x="661" y="83" type="line"/>
      <point x="391" y="101" type="line"/>
      <point x="391" y="574" type="line"/>
      <point x="672" y="574" type="line"/>
      <point x="672" y="667" type="line"/>
      <point x="391" y="667" type="line"/>
      <point x="391" y="1205" type="line"/>
      <point x="734" y="1192" type="line"/>
      <point x="778" y="839" type="line"/>
      <point x="880" y="839" type="line"/>
      <point x="870" y="1292" type="line"/>
    </contour>
  </outline>
</glyph>
<glyph name="gheupturn-cy.sc" format="1">
  <advance width="911"/>
  <outline>
    <contour>
      <point x="522" y="-144" type="move" name="mark0"/>
    </contour>
    <contour>
      <point x="767" y="1598" type="line"/>
      <point x="722" y="1292" type="line"/>
      <point x="74" y="1292" type="line"/>
      <point x="74" y="1209" type="line"/>
      <point x="242" y="1187" type="line"/>
      <point x="242" y="101" type="line"/>
      <point x="71" y="83" type="line"/>
      <point x="71" y="0" type="line"/>
      <point x="674" y="0" type="line"/>
      <point x="674" y="83" type="line"/>
      <point x="407" y="101" type="line"/>
      <point x="407" y="1202" type="line"/>
      <point x="855" y="1194" type="line"/>
      <point x="869" y="1598" type="line"/>
    </contour>
  </outline>
</glyph>
<glyph name="haabkhasian-cy.sc" format="1">
  <advance width="1328"/>
  <outline>
    <contour>
      <point x="681" y="1206" type="curve"/>
      <point x="694" y="1300" type="line"/>
      <point x="668" y="1304"/>
      <point x="620" y="1308"/>
      <point x="590" y="1308" type="curve" smooth="yes"/>
      <point x="319" y="1308"/>
      <point x="66" y="1076"/>
      <point x="66" y="634" type="curve" smooth="yes"/>
      <point x="66" y="264"/>
      <point x="239" y="-20"/>
      <point x="590" y="-20" type="curve" smooth="yes"/>
      <point x="673" y="-20"/>
      <point x="757" y="2"/>
      <point x="824" y="48" type="curve"/>
      <point x="894" y="9"/>
      <point x="981" y="-20"/>
      <point x="1084" y="-20" type="curve" smooth="yes"/>
      <point x="1165" y="-20"/>
      <point x="1237" y="2"/>
      <point x="1297" y="50" type="curve"/>
      <point x="1265" y="113" type="line"/>
      <point x="1224" y="81"/>
      <point x="1166" y="70"/>
      <point x="1112" y="70" type="curve" smooth="yes"/>
      <point x="1047" y="70"/>
      <point x="983" y="86"/>
      <point x="937" y="113" type="curve"/>
      <point x="1029" y="176"/>
      <point x="1181" y="348"/>
      <point x="1181" y="602" type="curve" smooth="yes"/>
      <point x="1181" y="959"/>
      <point x="1013" y="1054"/>
      <point x="847" y="1054" type="curve" smooth="yes"/>
      <point x="681" y="1054"/>
      <point x="515" y="938"/>
      <point x="515" y="581" type="curve" smooth="yes"/>
      <point x="515" y="369"/>
      <point x="625" y="165"/>
      <point x="745" y="97" type="curve"/>
      <point x="681" y="71"/>
      <point x="643" y="70"/>
      <point x="612" y="70" type="curve" smooth="yes"/>
      <point x="420" y="70"/>
      <point x="243" y="252"/>
      <point x="243" y="636" type="curve" smooth="yes"/>
      <point x="243" y="1065"/>
      <point x="410" y="1218"/>
      <point x="593" y="1218" type="curve" smooth="yes"/>
      <point x="621" y="1218"/>
      <point x="653" y="1214"/>
    </contour>
    <contour>
      <point x="846" y="975" type="curve" smooth="yes"/>
      <point x="963" y="975"/>
      <point x="1012" y="845"/>
      <point x="1012" y="600" type="curve" smooth="yes"/>
      <point x="1012" y="374"/>
      <point x="947" y="222"/>
      <point x="860" y="159" type="curve"/>
      <point x="760" y="239"/>
      <point x="678" y="405"/>
      <point x="678" y="589" type="curve" smooth="yes"/>
      <point x="678" y="846"/>
      <point x="741" y="975"/>
    </contour>
  </outline>
</glyph>
<glyph name="hadescender-cy.sc" format="1">
  <advance width="1133"/>
  <outline>
    <contour>
      <point x="566" y="-144" type="move" name="mark0"/>
    </contour>
    <contour>
      <point x="1146" y="101" type="curve"/>
      <point x="994" y="101" type="line"/>
      <point x="648" y="676" type="line"/>
      <point x="962" y="1186" type="line"/>
      <point x="1085" y="1207" type="line"/>
      <point x="1085" y="1292" type="line"/>
      <point x="707" y="1292" type="line"/>
      <point x="707" y="1207" type="line"/>
      <point x="843" y="1188" type="line"/>
      <point x="600" y="740" type="line"/>
      <point x="358" y="1186" type="line"/>
      <point x="506" y="1207" type="line"/>
      <point x="506" y="1292" type="line"/>
      <point x="48" y="1292" type="line"/>
      <point x="48" y="1207" type="line"/>
      <point x="162" y="1186" type="line"/>
      <point x="484" y="648" type="line"/>
      <point x="156" y="99" type="line"/>
      <point x="24" y="83" type="line"/>
      <point x="24" y="0" type="line"/>
      <point x="436" y="0" type="line"/>
      <point x="436" y="83" type="line"/>
      <point x="281" y="99" type="line"/>
      <point x="535" y="581" type="line"/>
      <point x="798" y="101" type="line"/>
      <point x="654" y="83" type="line"/>
      <point x="654" y="0" type="line"/>
      <point x="986" y="0" type="line"/>
      <point x="992" y="-14"/>
      <point x="1006" y="-272"/>
      <point x="1007" y="-317" type="curve"/>
      <point x="1105" y="-317" type="line"/>
      <point x="1109" y="-306"/>
      <point x="1146" y="80"/>
    </contour>
  </outline>
</glyph>
<glyph name="hahook-cy.sc" format="1">
  <advance width="1128"/>
  <outline>
    <contour>
      <point x="653" y="691" type="curve"/>
      <point x="962" y="1186" type="line"/>
      <point x="1085" y="1207" type="line"/>
      <point x="1085" y="1292" type="line"/>
      <point x="707" y="1292" type="line"/>
      <point x="707" y="1207" type="line"/>
      <point x="843" y="1188" type="line"/>
      <point x="604" y="754" type="line"/>
      <point x="358" y="1186" type="line"/>
      <point x="506" y="1207" type="line"/>
      <point x="506" y="1292" type="line"/>
      <point x="48" y="1292" type="line"/>
      <point x="48" y="1207" type="line"/>
      <point x="162" y="1186" type="line"/>
      <point x="488" y="661" type="line"/>
      <point x="156" y="99" type="line"/>
      <point x="24" y="83" type="line"/>
      <point x="24" y="0" type="line"/>
      <point x="436" y="0" type="line"/>
      <point x="436" y="83" type="line"/>
      <point x="281" y="99" type="line"/>
      <point x="540" y="594" type="line"/>
      <point x="770" y="218"/>
      <point x="837" y="78"/>
      <point x="837" y="-38" type="curve" smooth="yes"/>
      <point x="837" y="-134"/>
      <point x="799" y="-204"/>
      <point x="671" y="-255" type="curve"/>
      <point x="714" y="-345" type="line"/>
      <point x="924" y="-269"/>
      <point x="992" y="-123"/>
      <point x="992" y="16" type="curve" smooth="yes"/>
      <point x="992" y="186"/>
      <point x="854" y="378"/>
    </contour>
  </outline>
</glyph>
<glyph name="hardsign-cy.sc" format="1">
  <advance width="1297"/>
  <outline>
    <contour>
      <point x="599" y="-144" type="move" name="mark0"/>
    </contour>
    <contour>
      <point x="846" y="783" type="curve" smooth="yes"/>
      <point x="647" y="783" type="line"/>
      <point x="647" y="1188" type="line"/>
      <point x="795" y="1209" type="line"/>
      <point x="795" y="1292" type="line"/>
      <point x="89" y="1292" type="line"/>
      <point x="68" y="857" type="line"/>
      <point x="173" y="857" type="line"/>
      <point x="218" y="1188" type="line"/>
      <point x="482" y="1205" type="line"/>
      <point x="482" y="101" type="line"/>
      <point x="275" y="83" type="line"/>
      <point x="275" y="0" type="line"/>
      <point x="571" y="0" type="line" smooth="yes"/>
      <point x="636" y="0"/>
      <point x="793" y="-14"/>
      <point x="830" y="-14" type="curve" smooth="yes"/>
      <point x="1074" y="-14"/>
      <point x="1237" y="130"/>
      <point x="1237" y="405" type="curve" smooth="yes"/>
      <point x="1237" y="643"/>
      <point x="1105" y="783"/>
    </contour>
    <contour>
      <point x="647" y="91" type="curve"/>
      <point x="647" y="684" type="line"/>
      <point x="804" y="684" type="line" smooth="yes"/>
      <point x="970" y="684"/>
      <point x="1068" y="590"/>
      <point x="1068" y="393" type="curve" smooth="yes"/>
      <point x="1068" y="191"/>
      <point x="976" y="75"/>
      <point x="800" y="75" type="curve" smooth="yes"/>
      <point x="718" y="75"/>
      <point x="683" y="83"/>
    </contour>
  </outline>
</glyph>
<glyph name="hastroke-cy.sc" format="1">
  <advance width="1128"/>
  <outline>
    <contour>
      <point x="913" y="707" type="line"/>
      <point x="232" y="707" type="line"/>
      <point x="232" y="613" type="line"/>
      <point x="913" y="613" type="line"/>
    </contour>
    <contour>
      <point x="156" y="99" type="line"/>
      <point x="24" y="83" type="line"/>
      <point x="24" y="0" type="line"/>
      <point x="435" y="0" type="line"/>
      <point x="435" y="83" type="line"/>
      <point x="281" y="99" type="line"/>
      <point x="535" y="581" type="line"/>
      <point x="797" y="101" type="line"/>
      <point x="654" y="83" type="line"/>
      <point x="654" y="0" type="line"/>
      <point x="1111" y="0" type="line"/>
      <point x="1111" y="83" type="line"/>
      <point x="993" y="101" type="line"/>
      <point x="647" y="676" type="line"/>
      <point x="962" y="1186" type="line"/>
      <point x="1085" y="1207" type="line"/>
      <point x="1085" y="1292" type="line"/>
      <point x="706" y="1292" type="line"/>
      <point x="706" y="1207" type="line"/>
      <point x="843" y="1188" type="line"/>
      <point x="600" y="740" type="line"/>
      <point x="357" y="1186" type="line"/>
      <point x="506" y="1207" type="line"/>
      <point x="506" y="1292" type="line"/>
      <point x="47" y="1292" type="line"/>
      <point x="47" y="1207" type="line"/>
      <point x="161" y="1186" type="line"/>
      <point x="483" y="648" type="line"/>
    </contour>
  </outline>
</glyph>
<glyph name="ia-cy.sc" format="1">
  <advance width="1113"/>
  <outline>
    <contour>
      <point x="734" y="566" type="curve"/>
      <point x="734" y="99" type="line"/>
      <point x="586" y="83" type="line"/>
      <point x="586" y="0" type="line"/>
      <point x="1040" y="0" type="line"/>
      <point x="1040" y="83" type="line"/>
      <point x="896" y="99" type="line"/>
      <point x="896" y="1188" type="line"/>
      <point x="1028" y="1207" type="line"/>
      <point x="1028" y="1292" type="line"/>
      <point x="803" y="1292" type="line" smooth="yes"/>
      <point x="722" y="1292"/>
      <point x="660" y="1306"/>
      <point x="576" y="1306" type="curve" smooth="yes"/>
      <point x="331" y="1306"/>
      <point x="148" y="1240"/>
      <point x="148" y="937" type="curve" smooth="yes"/>
      <point x="148" y="755"/>
      <point x="237" y="629"/>
      <point x="373" y="587" type="curve"/>
      <point x="248" y="509"/>
      <point x="143" y="119"/>
      <point x="66" y="101" type="curve"/>
      <point x="7" y="83" type="line"/>
      <point x="7" y="0" type="line"/>
      <point x="214" y="0" type="line" smooth="yes"/>
      <point x="289" y="0"/>
      <point x="397" y="478"/>
      <point x="508" y="567" type="curve"/>
      <point x="590" y="566"/>
      <point x="664" y="566"/>
    </contour>
    <contour>
      <point x="734" y="1202" type="curve"/>
      <point x="734" y="664" type="line"/>
      <point x="707" y="660"/>
      <point x="647" y="658"/>
      <point x="569" y="658" type="curve" smooth="yes"/>
      <point x="409" y="658"/>
      <point x="317" y="761"/>
      <point x="317" y="952" type="curve" smooth="yes"/>
      <point x="317" y="1160"/>
      <point x="420" y="1214"/>
      <point x="568" y="1214" type="curve" smooth="yes"/>
      <point x="658" y="1214"/>
      <point x="690" y="1204"/>
    </contour>
  </outline>
</glyph>
<glyph name="ii-cy.sc" format="1">
  <advance width="1331"/>
  <outline>
    <contour>
      <point x="680" y="1273" type="move" name="top"/>
    </contour>
    <contour>
      <point x="1143" y="0" type="move" name="bottomright"/>
    </contour>
    <contour>
      <point x="96" y="1292" type="line"/>
      <point x="96" y="1207" type="line"/>
      <point x="218" y="1188" type="line"/>
      <point x="218" y="99" type="line"/>
      <point x="90" y="83" type="line"/>
      <point x="90" y="0" type="line"/>
      <point x="521" y="0" type="line"/>
      <point x="521" y="83" type="line"/>
      <point x="377" y="101" type="line"/>
      <point x="377" y="164" type="line"/>
      <point x="838" y="796" type="line"/>
      <point x="954" y="995" type="line"/>
      <point x="954" y="101" type="line"/>
      <point x="818" y="83" type="line"/>
      <point x="818" y="0" type="line"/>
      <point x="1244" y="0" type="line"/>
      <point x="1244" y="83" type="line"/>
      <point x="1114" y="101" type="line"/>
      <point x="1114" y="1188" type="line"/>
      <point x="1236" y="1207" type="line"/>
      <point x="1236" y="1292" type="line"/>
      <point x="818" y="1292" type="line"/>
      <point x="818" y="1207" type="line"/>
      <point x="954" y="1188" type="line"/>
      <point x="954" y="1139" type="line"/>
      <point x="507" y="516" type="line"/>
      <point x="377" y="306" type="line"/>
      <point x="377" y="1188" type="line"/>
      <point x="527" y="1209" type="line"/>
      <point x="527" y="1292" type="line"/>
    </contour>
  </outline>
</glyph>
<glyph name="iishorttail-cy.sc" format="1">
  <advance width="1333"/>
  <outline>
    <contour>
      <point x="1117" y="0" type="move" name="bottomright"/>
    </contour>
    <contour>
      <point x="1266" y="0" type="curve"/>
      <point x="1266" y="99" type="line"/>
      <point x="1090" y="99" type="line"/>
      <point x="1074" y="0" type="line"/>
      <point x="1129" y="0" type="line"/>
      <point x="1119" y="-47"/>
      <point x="1067" y="-294"/>
      <point x="1055" y="-323" type="curve"/>
      <point x="1159" y="-323" type="line"/>
      <point x="1170" y="-301"/>
      <point x="1255" y="-18"/>
    </contour>
    <contour>
      <point x="488" y="1856" type="curve" smooth="yes"/>
      <point x="376" y="1856" type="line"/>
      <point x="376" y="1843"/>
      <point x="374" y="1831"/>
      <point x="374" y="1821" type="curve" smooth="yes"/>
      <point x="374" y="1614"/>
      <point x="485" y="1463"/>
      <point x="679" y="1463" type="curve" smooth="yes"/>
      <point x="878" y="1463"/>
      <point x="982" y="1612"/>
      <point x="982" y="1821" type="curve" smooth="yes"/>
      <point x="982" y="1831"/>
      <point x="981" y="1844"/>
      <point x="980" y="1856" type="curve"/>
      <point x="868" y="1856" type="line" smooth="yes"/>
      <point x="847" y="1856"/>
      <point x="843" y="1820"/>
      <point x="843" y="1786" type="curve" smooth="yes"/>
      <point x="843" y="1681"/>
      <point x="804" y="1560"/>
      <point x="681" y="1560" type="curve" smooth="yes"/>
      <point x="555" y="1560"/>
      <point x="513" y="1681"/>
      <point x="513" y="1786" type="curve" smooth="yes"/>
      <point x="513" y="1820"/>
      <point x="510" y="1856"/>
    </contour>
    <contour>
      <point x="96" y="1292" type="line"/>
      <point x="96" y="1207" type="line"/>
      <point x="218" y="1188" type="line"/>
      <point x="218" y="99" type="line"/>
      <point x="90" y="83" type="line"/>
      <point x="90" y="0" type="line"/>
      <point x="521" y="0" type="line"/>
      <point x="521" y="83" type="line"/>
      <point x="377" y="101" type="line"/>
      <point x="377" y="164" type="line"/>
      <point x="838" y="796" type="line"/>
      <point x="954" y="995" type="line"/>
      <point x="954" y="101" type="line"/>
      <point x="818" y="83" type="line"/>
      <point x="818" y="0" type="line"/>
      <point x="1244" y="0" type="line"/>
      <point x="1244" y="83" type="line"/>
      <point x="1114" y="101" type="line"/>
      <point x="1114" y="1188" type="line"/>
      <point x="1236" y="1207" type="line"/>
      <point x="1236" y="1292" type="line"/>
      <point x="818" y="1292" type="line"/>
      <point x="818" y="1207" type="line"/>
      <point x="954" y="1188" type="line"/>
      <point x="954" y="1139" type="line"/>
      <point x="507" y="516" type="line"/>
      <point x="377" y="306" type="line"/>
      <point x="377" y="1188" type="line"/>
      <point x="527" y="1209" type="line"/>
      <point x="527" y="1292" type="line"/>
    </contour>
  </outline>
</glyph>
<glyph name="iu-cy.sc" format="1">
  <advance width="1687"/>
  <outline>
    <contour>
      <point x="632" y="715" type="curve"/>
      <point x="377" y="715" type="line"/>
      <point x="377" y="1188" type="line"/>
      <point x="506" y="1207" type="line"/>
      <point x="506" y="1292" type="line"/>
      <point x="94" y="1292" type="line"/>
      <point x="94" y="1207" type="line"/>
      <point x="217" y="1188" type="line"/>
      <point x="217" y="101" type="line"/>
      <point x="89" y="83" type="line"/>
      <point x="89" y="0" type="line"/>
      <point x="512" y="0" type="line"/>
      <point x="512" y="83" type="line"/>
      <point x="378" y="101" type="line"/>
      <point x="378" y="615" type="line"/>
      <point x="628" y="615" type="line"/>
      <point x="629" y="236"/>
      <point x="805" y="-16"/>
      <point x="1119" y="-16" type="curve" smooth="yes"/>
      <point x="1396" y="-16"/>
      <point x="1612" y="237"/>
      <point x="1618" y="661" type="curve" smooth="yes"/>
      <point x="1623" y="1041"/>
      <point x="1451" y="1308"/>
      <point x="1140" y="1308" type="curve" smooth="yes"/>
      <point x="886" y="1308"/>
      <point x="664" y="1090"/>
    </contour>
    <contour>
      <point x="1131" y="1214" type="curve" smooth="yes"/>
      <point x="1330" y="1214"/>
      <point x="1441" y="989"/>
      <point x="1441" y="661" type="curve" smooth="yes"/>
      <point x="1441" y="270"/>
      <point x="1321" y="80"/>
      <point x="1129" y="80" type="curve" smooth="yes"/>
      <point x="919" y="80"/>
      <point x="804" y="310"/>
      <point x="804" y="635" type="curve" smooth="yes"/>
      <point x="804" y="1037"/>
      <point x="942" y="1214"/>
    </contour>
  </outline>
</glyph>
<glyph name="izhitsa-cy.sc" format="1">
  <advance width="1151"/>
  <outline>
    <contour>
      <point x="843" y="1080" type="curve"/>
      <point x="645" y="376" type="line"/>
      <point x="595" y="153" type="line"/>
      <point x="539" y="378" type="line"/>
      <point x="294" y="1188" type="line"/>
      <point x="428" y="1207" type="line"/>
      <point x="428" y="1292" type="line"/>
      <point x="26" y="1292" type="line"/>
      <point x="26" y="1207" type="line"/>
      <point x="120" y="1188" type="line"/>
      <point x="508" y="-14" type="line"/>
      <point x="638" y="-14" type="line"/>
      <point x="936" y="970" type="line"/>
      <point x="976" y="1148"/>
      <point x="1051" y="1176"/>
      <point x="1121" y="1176" type="curve" smooth="yes"/>
      <point x="1127" y="1176"/>
      <point x="1133" y="1176"/>
      <point x="1133" y="1176" type="curve"/>
      <point x="1133" y="1284" type="line"/>
      <point x="1123" y="1288"/>
      <point x="1103" y="1297"/>
      <point x="1052" y="1297" type="curve" smooth="yes"/>
      <point x="975" y="1297"/>
      <point x="877" y="1246"/>
    </contour>
  </outline>
</glyph>
<glyph name="ka-cy.sc" format="1">
  <advance width="1113"/>
  <outline>
    <contour>
      <point x="557" y="1273" type="move" name="top"/>
    </contour>
    <contour>
      <point x="557" y="648" type="move" name="center"/>
    </contour>
    <contour>
      <point x="1070" y="0" type="move" name="bottomright"/>
    </contour>
    <contour>
      <point x="612" y="674" type="curve"/>
      <point x="949" y="1188" type="line"/>
      <point x="1070" y="1207" type="line"/>
      <point x="1070" y="1292" type="line"/>
      <point x="693" y="1292" type="line"/>
      <point x="693" y="1207" type="line"/>
      <point x="822" y="1188" type="line"/>
      <point x="508" y="682" type="line"/>
      <point x="375" y="682" type="line"/>
      <point x="375" y="1188" type="line"/>
      <point x="502" y="1207" type="line"/>
      <point x="502" y="1292" type="line"/>
      <point x="91" y="1292" type="line"/>
      <point x="91" y="1207" type="line"/>
      <point x="216" y="1188" type="line"/>
      <point x="216" y="101" type="line"/>
      <point x="91" y="85" type="line"/>
      <point x="91" y="0" type="line"/>
      <point x="511" y="0" type="line"/>
      <point x="511" y="83" type="line"/>
      <point x="375" y="101" type="line"/>
      <point x="375" y="600" type="line"/>
      <point x="475" y="600" type="line" smooth="yes"/>
      <point x="610" y="600"/>
      <point x="791" y="0"/>
      <point x="901" y="0" type="curve"/>
      <point x="1091" y="0" type="line"/>
      <point x="1091" y="83" type="line"/>
      <point x="1032" y="101" type="line" smooth="yes"/>
      <point x="947" y="127"/>
      <point x="773" y="608"/>
    </contour>
  </outline>
</glyph>
<glyph name="kabashkir-cy.sc" format="1">
  <advance width="1347"/>
  <outline>
    <contour>
      <point x="827" y="-144" type="move" name="mark0"/>
    </contour>
    <contour>
      <point x="865" y="680" type="curve"/>
      <point x="1195" y="1188" type="line"/>
      <point x="1317" y="1207" type="line"/>
      <point x="1317" y="1292" type="line"/>
      <point x="939" y="1292" type="line"/>
      <point x="939" y="1207" type="line"/>
      <point x="1063" y="1188" type="line"/>
      <point x="760" y="696" type="line"/>
      <point x="621" y="696" type="line"/>
      <point x="621" y="1188" type="line"/>
      <point x="757" y="1207" type="line"/>
      <point x="757" y="1292" type="line"/>
      <point x="87" y="1292" type="line"/>
      <point x="70" y="860" type="line"/>
      <point x="177" y="860" type="line"/>
      <point x="222" y="1188" type="line"/>
      <point x="462" y="1205" type="line"/>
      <point x="462" y="101" type="line"/>
      <point x="327" y="83" type="line"/>
      <point x="327" y="0" type="line"/>
      <point x="761" y="0" type="line"/>
      <point x="761" y="83" type="line"/>
      <point x="621" y="99" type="line"/>
      <point x="621" y="603" type="line"/>
      <point x="717" y="603" type="line" smooth="yes"/>
      <point x="853" y="603"/>
      <point x="1040" y="0"/>
      <point x="1154" y="0" type="curve"/>
      <point x="1341" y="0" type="line"/>
      <point x="1341" y="83" type="line"/>
      <point x="1278" y="103" type="line" smooth="yes"/>
      <point x="1199" y="129"/>
      <point x="1019" y="589"/>
    </contour>
  </outline>
</glyph>
<glyph name="kadescender-cy.sc" format="1">
  <advance width="1118"/>
  <outline>
    <contour>
      <point x="607" y="674" type="curve"/>
      <point x="945" y="1188" type="line"/>
      <point x="1065" y="1207" type="line"/>
      <point x="1065" y="1292" type="line"/>
      <point x="688" y="1292" type="line"/>
      <point x="688" y="1207" type="line"/>
      <point x="817" y="1188" type="line"/>
      <point x="503" y="682" type="line"/>
      <point x="371" y="682" type="line"/>
      <point x="371" y="1188" type="line"/>
      <point x="497" y="1207" type="line"/>
      <point x="497" y="1292" type="line"/>
      <point x="87" y="1292" type="line"/>
      <point x="87" y="1207" type="line"/>
      <point x="211" y="1188" type="line"/>
      <point x="211" y="101" type="line"/>
      <point x="87" y="85" type="line"/>
      <point x="87" y="0" type="line"/>
      <point x="507" y="0" type="line"/>
      <point x="507" y="83" type="line"/>
      <point x="371" y="101" type="line"/>
      <point x="371" y="600" type="line"/>
      <point x="470" y="600" type="line" smooth="yes"/>
      <point x="605" y="600"/>
      <point x="786" y="0"/>
      <point x="896" y="0" type="curve" smooth="yes"/>
      <point x="955" y="0" type="line"/>
      <point x="962" y="-18"/>
      <point x="977" y="-289"/>
      <point x="977" y="-323" type="curve"/>
      <point x="1075" y="-323" type="line"/>
      <point x="1087" y="-216"/>
      <point x="1106" y="-20"/>
      <point x="1116" y="101" type="curve"/>
      <point x="1026" y="101" type="line"/>
      <point x="940" y="135"/>
      <point x="767" y="608"/>
    </contour>
  </outline>
</glyph>
<glyph name="kahook-cy.sc" format="1">
  <advance width="1121"/>
  <outline>
    <contour>
      <point x="375" y="678" type="curve"/>
      <point x="375" y="1188" type="line"/>
      <point x="502" y="1207" type="line"/>
      <point x="502" y="1292" type="line"/>
      <point x="91" y="1292" type="line"/>
      <point x="91" y="1207" type="line"/>
      <point x="216" y="1188" type="line"/>
      <point x="216" y="101" type="line"/>
      <point x="91" y="85" type="line"/>
      <point x="91" y="0" type="line"/>
      <point x="511" y="0" type="line"/>
      <point x="511" y="83" type="line"/>
      <point x="375" y="101" type="line"/>
      <point x="375" y="585" type="line"/>
      <point x="448" y="609"/>
      <point x="501" y="631"/>
      <point x="599" y="631" type="curve" smooth="yes"/>
      <point x="768" y="631"/>
      <point x="838" y="520"/>
      <point x="838" y="283" type="curve" smooth="yes"/>
      <point x="838" y="-77"/>
      <point x="760" y="-234"/>
      <point x="596" y="-234" type="curve" smooth="yes"/>
      <point x="563" y="-234"/>
      <point x="536" y="-231"/>
      <point x="525" y="-227" type="curve"/>
      <point x="526" y="-330" type="line"/>
      <point x="545" y="-340"/>
      <point x="592" y="-345"/>
      <point x="626" y="-345" type="curve" smooth="yes"/>
      <point x="863" y="-345"/>
      <point x="1002" y="-77"/>
      <point x="1002" y="303" type="curve" smooth="yes"/>
      <point x="1002" y="563"/>
      <point x="918" y="732"/>
      <point x="665" y="741" type="curve"/>
      <point x="951" y="1188" type="line"/>
      <point x="1072" y="1207" type="line"/>
      <point x="1072" y="1292" type="line"/>
      <point x="695" y="1292" type="line"/>
      <point x="695" y="1207" type="line"/>
      <point x="824" y="1188" type="line"/>
      <point x="542" y="730" type="line"/>
      <point x="486" y="718"/>
      <point x="417" y="696"/>
    </contour>
  </outline>
</glyph>
<glyph name="kastroke-cy.sc" format="1">
  <advance width="1112"/>
  <outline>
    <contour>
      <point x="575" y="-144" type="move" name="mark0"/>
    </contour>
    <contour>
      <point x="615" y="674" type="curve"/>
      <point x="946" y="1188" type="line"/>
      <point x="1067" y="1207" type="line"/>
      <point x="1067" y="1292" type="line"/>
      <point x="690" y="1292" type="line"/>
      <point x="690" y="1207" type="line"/>
      <point x="819" y="1188" type="line"/>
      <point x="511" y="682" type="line"/>
      <point x="372" y="682" type="line"/>
      <point x="372" y="909" type="line"/>
      <point x="506" y="909" type="line"/>
      <point x="506" y="1001" type="line"/>
      <point x="372" y="1001" type="line"/>
      <point x="372" y="1188" type="line"/>
      <point x="499" y="1207" type="line"/>
      <point x="499" y="1292" type="line"/>
      <point x="88" y="1292" type="line"/>
      <point x="88" y="1207" type="line"/>
      <point x="213" y="1188" type="line"/>
      <point x="213" y="1001" type="line"/>
      <point x="89" y="1001" type="line"/>
      <point x="89" y="909" type="line"/>
      <point x="213" y="909" type="line"/>
      <point x="213" y="101" type="line"/>
      <point x="88" y="85" type="line"/>
      <point x="88" y="0" type="line"/>
      <point x="508" y="0" type="line"/>
      <point x="508" y="83" type="line"/>
      <point x="372" y="101" type="line"/>
      <point x="372" y="600" type="line"/>
      <point x="478" y="600" type="line" smooth="yes"/>
      <point x="613" y="600"/>
      <point x="788" y="0"/>
      <point x="898" y="0" type="curve" smooth="yes"/>
      <point x="1088" y="0" type="line"/>
      <point x="1088" y="83" type="line"/>
      <point x="1029" y="101" type="line" smooth="yes"/>
      <point x="944" y="127"/>
      <point x="775" y="608"/>
    </contour>
  </outline>
</glyph>
<glyph name="kaverticalstroke-cy.sc" format="1">
  <advance width="1186"/>
  <outline>
    <contour>
      <point x="739" y="681" type="curve"/>
      <point x="1019" y="1188" type="line"/>
      <point x="1137" y="1207" type="line"/>
      <point x="1137" y="1292" type="line"/>
      <point x="760" y="1292" type="line"/>
      <point x="760" y="1207" type="line"/>
      <point x="892" y="1186" type="line"/>
      <point x="634" y="696" type="line"/>
      <point x="576" y="696" type="line"/>
      <point x="576" y="964" type="line"/>
      <point x="493" y="964" type="line"/>
      <point x="493" y="696" type="line"/>
      <point x="375" y="696" type="line"/>
      <point x="375" y="1188" type="line"/>
      <point x="502" y="1207" type="line"/>
      <point x="502" y="1292" type="line"/>
      <point x="91" y="1292" type="line"/>
      <point x="91" y="1207" type="line"/>
      <point x="216" y="1188" type="line"/>
      <point x="216" y="101" type="line"/>
      <point x="91" y="85" type="line"/>
      <point x="91" y="0" type="line"/>
      <point x="511" y="0" type="line"/>
      <point x="511" y="83" type="line"/>
      <point x="375" y="101" type="line"/>
      <point x="375" y="603" type="line"/>
      <point x="493" y="603" type="line"/>
      <point x="493" y="314" type="line"/>
      <point x="576" y="314" type="line"/>
      <point x="576" y="596" type="line"/>
      <point x="610" y="596" type="line" smooth="yes"/>
      <point x="736" y="592"/>
      <point x="883" y="0"/>
      <point x="1003" y="0" type="curve" smooth="yes"/>
      <point x="1182" y="0" type="line"/>
      <point x="1182" y="83" type="line"/>
      <point x="1124" y="103" type="line" smooth="yes"/>
      <point x="1045" y="131"/>
      <point x="889" y="590"/>
    </contour>
  </outline>
</glyph>
<glyph name="komide-cy.sc" format="1">
  <advance width="1028"/>
  <outline>
    <contour>
      <point x="650" y="0" type="curve"/>
      <point x="940" y="0" type="line"/>
      <point x="940" y="83" type="line"/>
      <point x="811" y="99" type="line"/>
      <point x="811" y="1194" type="line"/>
      <point x="936" y="1218" type="line"/>
      <point x="936" y="1292" type="line"/>
      <point x="488" y="1292" type="line"/>
      <point x="488" y="1218" type="line"/>
      <point x="650" y="1194" type="line"/>
      <point x="650" y="770" type="line"/>
      <point x="602" y="776"/>
      <point x="525" y="786"/>
      <point x="465" y="786" type="curve" smooth="yes"/>
      <point x="218" y="786"/>
      <point x="58" y="638"/>
      <point x="58" y="368" type="curve" smooth="yes"/>
      <point x="58" y="128"/>
      <point x="200" y="-14"/>
      <point x="447" y="-14" type="curve" smooth="yes"/>
      <point x="520" y="-14"/>
      <point x="586" y="-6"/>
    </contour>
    <contour>
      <point x="650" y="680" type="curve"/>
      <point x="650" y="100" type="line"/>
      <point x="611" y="90"/>
      <point x="548" y="86"/>
      <point x="495" y="86" type="curve" smooth="yes"/>
      <point x="324" y="86"/>
      <point x="228" y="189"/>
      <point x="228" y="376" type="curve" smooth="yes"/>
      <point x="228" y="589"/>
      <point x="325" y="693"/>
      <point x="491" y="693" type="curve" smooth="yes"/>
      <point x="568" y="693"/>
      <point x="606" y="688"/>
    </contour>
  </outline>
</glyph>
<glyph name="komidje-cy.sc" format="1">
  <advance width="1471"/>
  <outline>
    <contour>
      <point x="1320" y="290" type="curve" smooth="yes"/>
      <point x="1320" y="601" type="line"/>
      <point x="1431" y="621" type="line"/>
      <point x="1431" y="712" type="line"/>
      <point x="1035" y="712" type="line"/>
      <point x="1035" y="621" type="line"/>
      <point x="1158" y="601" type="line"/>
      <point x="1158" y="317" type="line" smooth="yes"/>
      <point x="1158" y="160"/>
      <point x="1112" y="80"/>
      <point x="975" y="80" type="curve" smooth="yes"/>
      <point x="852" y="80"/>
      <point x="811" y="155"/>
      <point x="811" y="321" type="curve" smooth="yes"/>
      <point x="811" y="1194" type="line"/>
      <point x="935" y="1218" type="line"/>
      <point x="935" y="1292" type="line"/>
      <point x="493" y="1292" type="line"/>
      <point x="493" y="1218" type="line"/>
      <point x="650" y="1194" type="line"/>
      <point x="650" y="770" type="line"/>
      <point x="602" y="776"/>
      <point x="525" y="786"/>
      <point x="464" y="786" type="curve" smooth="yes"/>
      <point x="218" y="786"/>
      <point x="58" y="638"/>
      <point x="58" y="368" type="curve" smooth="yes"/>
      <point x="58" y="128"/>
      <point x="200" y="-14"/>
      <point x="447" y="-14" type="curve" smooth="yes"/>
      <point x="545" y="-14"/>
      <point x="647" y="1"/>
      <point x="738" y="58" type="curve"/>
      <point x="791" y="12"/>
      <point x="867" y="-14"/>
      <point x="970" y="-14" type="curve" smooth="yes"/>
      <point x="1189" y="-14"/>
      <point x="1320" y="99"/>
    </contour>
    <contour>
      <point x="650" y="680" type="curve"/>
      <point x="650" y="299" type="line" smooth="yes"/>
      <point x="650" y="256"/>
      <point x="654" y="203"/>
      <point x="670" y="158" type="curve"/>
      <point x="627" y="108"/>
      <point x="546" y="86"/>
      <point x="495" y="86" type="curve" smooth="yes"/>
      <point x="323" y="86"/>
      <point x="228" y="189"/>
      <point x="228" y="376" type="curve" smooth="yes"/>
      <point x="228" y="589"/>
      <point x="325" y="693"/>
      <point x="491" y="693" type="curve" smooth="yes"/>
      <point x="568" y="693"/>
      <point x="606" y="688"/>
    </contour>
  </outline>
</glyph>
<glyph name="komidzje-cy.sc" format="1">
  <advance width="1053"/>
  <outline>
    <contour>
      <point x="406" y="714" type="curve" smooth="yes"/>
      <point x="316" y="714" type="line"/>
      <point x="316" y="619" type="line"/>
      <point x="423" y="619" type="line" smooth="yes"/>
      <point x="621" y="619"/>
      <point x="698" y="498"/>
      <point x="698" y="339" type="curve" smooth="yes"/>
      <point x="698" y="237"/>
      <point x="651" y="108"/>
      <point x="558" y="108" type="curve"/>
      <point x="558" y="0" type="line"/>
      <point x="864" y="0" type="line"/>
      <point x="866" y="-6"/>
      <point x="875" y="-216"/>
      <point x="877" y="-323" type="curve"/>
      <point x="976" y="-323" type="line"/>
      <point x="1007" y="-25"/>
      <point x="1007" y="-50"/>
      <point x="1022" y="111" type="curve"/>
      <point x="805" y="111" type="line"/>
      <point x="839" y="135"/>
      <point x="889" y="229"/>
      <point x="889" y="333" type="curve" smooth="yes"/>
      <point x="889" y="519"/>
      <point x="761" y="682"/>
      <point x="566" y="682" type="curve"/>
      <point x="695" y="710"/>
      <point x="819" y="814"/>
      <point x="819" y="1014" type="curve" smooth="yes"/>
      <point x="819" y="1214"/>
      <point x="684" y="1306"/>
      <point x="433" y="1306" type="curve" smooth="yes"/>
      <point x="317" y="1306"/>
      <point x="185" y="1256"/>
      <point x="121" y="1250" type="curve"/>
      <point x="138" y="986" type="line"/>
      <point x="235" y="986" type="line"/>
      <point x="262" y="1145" type="line"/>
      <point x="285" y="1186"/>
      <point x="350" y="1214"/>
      <point x="441" y="1214" type="curve" smooth="yes"/>
      <point x="569" y="1214"/>
      <point x="646" y="1153"/>
      <point x="647" y="992" type="curve"/>
      <point x="647" y="802"/>
      <point x="526" y="714"/>
    </contour>
  </outline>
</glyph>
<glyph name="komilje-cy.sc" format="1">
  <advance width="1611"/>
  <outline>
    <contour>
      <point x="467" y="-144" type="move" name="mark0"/>
    </contour>
    <contour>
      <point x="1458" y="290" type="curve" smooth="yes"/>
      <point x="1458" y="601" type="line"/>
      <point x="1571" y="621" type="line"/>
      <point x="1571" y="714" type="line"/>
      <point x="1174" y="714" type="line"/>
      <point x="1174" y="621" type="line"/>
      <point x="1296" y="601" type="line"/>
      <point x="1296" y="317" type="line" smooth="yes"/>
      <point x="1296" y="160"/>
      <point x="1250" y="80"/>
      <point x="1113" y="80" type="curve" smooth="yes"/>
      <point x="990" y="80"/>
      <point x="949" y="156"/>
      <point x="949" y="321" type="curve" smooth="yes"/>
      <point x="949" y="1188" type="line"/>
      <point x="1093" y="1207" type="line"/>
      <point x="1093" y="1292" type="line"/>
      <point x="200" y="1292" type="line"/>
      <point x="200" y="1207" type="line"/>
      <point x="376" y="1188" type="line"/>
      <point x="376" y="1037" type="line" smooth="yes"/>
      <point x="376" y="588"/>
      <point x="330" y="328"/>
      <point x="258" y="201" type="curve"/>
      <point x="235" y="156"/>
      <point x="207" y="132"/>
      <point x="166" y="132" type="curve" smooth="yes"/>
      <point x="105" y="132"/>
      <point x="72" y="136"/>
      <point x="50" y="140" type="curve"/>
      <point x="61" y="0" type="line"/>
      <point x="83" y="-4"/>
      <point x="121" y="-10"/>
      <point x="170" y="-10" type="curve" smooth="yes"/>
      <point x="244" y="-10"/>
      <point x="298" y="31"/>
      <point x="343" y="115" type="curve" smooth="yes"/>
      <point x="429" y="282"/>
      <point x="470" y="623"/>
      <point x="470" y="1028" type="curve" smooth="yes"/>
      <point x="470" y="1188" type="line"/>
      <point x="787" y="1188" type="line"/>
      <point x="787" y="299" type="line" smooth="yes"/>
      <point x="787" y="102"/>
      <point x="888" y="-14"/>
      <point x="1108" y="-14" type="curve" smooth="yes"/>
      <point x="1328" y="-14"/>
      <point x="1458" y="99"/>
    </contour>
  </outline>
</glyph>
<glyph name="kominje-cy.sc" format="1">
  <advance width="1711"/>
  <outline>
    <contour>
      <point x="1051" y="321" type="curve" smooth="yes"/>
      <point x="1051" y="1188" type="line"/>
      <point x="1189" y="1211" type="line"/>
      <point x="1189" y="1292" type="line"/>
      <point x="749" y="1292" type="line"/>
      <point x="749" y="1211" type="line"/>
      <point x="889" y="1189" type="line"/>
      <point x="889" y="716" type="line"/>
      <point x="378" y="716" type="line"/>
      <point x="378" y="1188" type="line"/>
      <point x="512" y="1207" type="line"/>
      <point x="512" y="1292" type="line"/>
      <point x="94" y="1292" type="line"/>
      <point x="94" y="1207" type="line"/>
      <point x="217" y="1188" type="line"/>
      <point x="217" y="99" type="line"/>
      <point x="89" y="83" type="line"/>
      <point x="89" y="0" type="line"/>
      <point x="510" y="0" type="line"/>
      <point x="510" y="83" type="line"/>
      <point x="378" y="99" type="line"/>
      <point x="378" y="610" type="line"/>
      <point x="889" y="610" type="line"/>
      <point x="890" y="299" type="line" smooth="yes"/>
      <point x="892" y="94"/>
      <point x="996" y="-14"/>
      <point x="1209" y="-14" type="curve" smooth="yes"/>
      <point x="1429" y="-14"/>
      <point x="1559" y="99"/>
      <point x="1559" y="290" type="curve" smooth="yes"/>
      <point x="1559" y="601" type="line"/>
      <point x="1671" y="621" type="line"/>
      <point x="1671" y="714" type="line"/>
      <point x="1276" y="714" type="line"/>
      <point x="1276" y="621" type="line"/>
      <point x="1396" y="601" type="line"/>
      <point x="1396" y="317" type="line" smooth="yes"/>
      <point x="1396" y="160"/>
      <point x="1350" y="80"/>
      <point x="1215" y="80" type="curve" smooth="yes"/>
      <point x="1093" y="80"/>
      <point x="1052" y="155"/>
    </contour>
  </outline>
</glyph>
<glyph name="komisje-cy.sc" format="1">
  <advance width="1166"/>
  <outline>
    <contour>
      <point x="596" y="-144" type="move" name="mark0"/>
    </contour>
    <contour>
      <point x="1012" y="290" type="curve" smooth="yes"/>
      <point x="1012" y="601" type="line"/>
      <point x="1124" y="621" type="line"/>
      <point x="1124" y="714" type="line"/>
      <point x="734" y="714" type="line"/>
      <point x="734" y="621" type="line"/>
      <point x="855" y="601" type="line"/>
      <point x="855" y="317" type="line" smooth="yes"/>
      <point x="855" y="160"/>
      <point x="803" y="80"/>
      <point x="647" y="80" type="curve" smooth="yes"/>
      <point x="387" y="80"/>
      <point x="251" y="375"/>
      <point x="251" y="668" type="curve" smooth="yes"/>
      <point x="251" y="1031"/>
      <point x="411" y="1214"/>
      <point x="640" y="1214" type="curve" smooth="yes"/>
      <point x="774" y="1214"/>
      <point x="844" y="1184"/>
      <point x="864" y="1164" type="curve"/>
      <point x="901" y="955" type="line"/>
      <point x="1007" y="955" type="line"/>
      <point x="1022" y="1254" type="line"/>
      <point x="971" y="1266"/>
      <point x="815" y="1308"/>
      <point x="653" y="1308" type="curve" smooth="yes"/>
      <point x="326" y="1308"/>
      <point x="66" y="1052"/>
      <point x="66" y="630" type="curve" smooth="yes"/>
      <point x="66" y="274"/>
      <point x="291" y="-14"/>
      <point x="643" y="-14" type="curve" smooth="yes"/>
      <point x="874" y="-14"/>
      <point x="1012" y="99"/>
    </contour>
  </outline>
</glyph>
<glyph name="komitje-cy.sc" format="1">
  <advance width="1304"/>
  <outline>
    <contour>
      <point x="594" y="-144" type="move" name="mark0"/>
    </contour>
    <contour>
      <point x="645" y="321" type="curve" smooth="yes"/>
      <point x="645" y="1203" type="line"/>
      <point x="925" y="1194" type="line"/>
      <point x="970" y="881" type="line"/>
      <point x="1070" y="881" type="line"/>
      <point x="1051" y="1292" type="line"/>
      <point x="85" y="1292" type="line"/>
      <point x="60" y="881" type="line"/>
      <point x="158" y="881" type="line"/>
      <point x="209" y="1194" type="line"/>
      <point x="481" y="1203" type="line"/>
      <point x="481" y="299" type="line" smooth="yes"/>
      <point x="481" y="102"/>
      <point x="584" y="-14"/>
      <point x="804" y="-14" type="curve" smooth="yes"/>
      <point x="1020" y="-14"/>
      <point x="1154" y="97"/>
      <point x="1154" y="290" type="curve" smooth="yes"/>
      <point x="1154" y="601" type="line"/>
      <point x="1264" y="621" type="line"/>
      <point x="1264" y="714" type="line"/>
      <point x="869" y="714" type="line"/>
      <point x="869" y="621" type="line"/>
      <point x="992" y="601" type="line"/>
      <point x="992" y="317" type="line" smooth="yes"/>
      <point x="992" y="162"/>
      <point x="945" y="80"/>
      <point x="808" y="80" type="curve" smooth="yes"/>
      <point x="681" y="80"/>
      <point x="645" y="159"/>
    </contour>
  </outline>
</glyph>
<glyph name="komizje-cy.sc" format="1">
  <advance width="1528"/>
  <outline>
    <contour>
      <point x="1376" y="290" type="curve" smooth="yes"/>
      <point x="1376" y="601" type="line"/>
      <point x="1489" y="621" type="line"/>
      <point x="1489" y="712" type="line"/>
      <point x="1094" y="712" type="line"/>
      <point x="1094" y="621" type="line"/>
      <point x="1215" y="601" type="line"/>
      <point x="1215" y="317" type="line" smooth="yes"/>
      <point x="1215" y="162"/>
      <point x="1171" y="80"/>
      <point x="1032" y="80" type="curve" smooth="yes"/>
      <point x="920" y="80"/>
      <point x="867" y="138"/>
      <point x="867" y="321" type="curve" smooth="yes"/>
      <point x="867" y="533"/>
      <point x="762" y="682"/>
      <point x="564" y="682" type="curve"/>
      <point x="691" y="708"/>
      <point x="819" y="809"/>
      <point x="819" y="1014" type="curve" smooth="yes"/>
      <point x="819" y="1214"/>
      <point x="684" y="1306"/>
      <point x="433" y="1306" type="curve" smooth="yes"/>
      <point x="317" y="1306"/>
      <point x="185" y="1256"/>
      <point x="121" y="1250" type="curve"/>
      <point x="138" y="986" type="line"/>
      <point x="235" y="986" type="line"/>
      <point x="262" y="1145" type="line"/>
      <point x="285" y="1186"/>
      <point x="350" y="1214"/>
      <point x="441" y="1214" type="curve" smooth="yes"/>
      <point x="569" y="1214"/>
      <point x="646" y="1153"/>
      <point x="647" y="992" type="curve"/>
      <point x="647" y="802"/>
      <point x="526" y="714"/>
      <point x="408" y="714" type="curve" smooth="yes"/>
      <point x="316" y="714" type="line"/>
      <point x="316" y="619" type="line"/>
      <point x="425" y="619" type="line" smooth="yes"/>
      <point x="631" y="619"/>
      <point x="698" y="482"/>
      <point x="698" y="299" type="curve" smooth="yes"/>
      <point x="698" y="101"/>
      <point x="809" y="-14"/>
      <point x="1028" y="-14" type="curve" smooth="yes"/>
      <point x="1245" y="-14"/>
      <point x="1376" y="97"/>
    </contour>
  </outline>
</glyph>
<glyph name="lje-cy.sc" format="1">
  <advance width="1597"/>
  <outline>
    <contour>
      <point x="502" y="-144" type="move" name="mark0"/>
    </contour>
    <contour>
      <point x="944" y="717" type="curve"/>
      <point x="944" y="1188" type="line"/>
      <point x="1089" y="1207" type="line"/>
      <point x="1089" y="1292" type="line"/>
      <point x="223" y="1292" type="line"/>
      <point x="223" y="1207" type="line"/>
      <point x="375" y="1188" type="line"/>
      <point x="375" y="1037" type="line" smooth="yes"/>
      <point x="375" y="590"/>
      <point x="331" y="326"/>
      <point x="257" y="199" type="curve"/>
      <point x="233" y="150"/>
      <point x="203" y="132"/>
      <point x="166" y="132" type="curve" smooth="yes"/>
      <point x="103" y="132"/>
      <point x="72" y="136"/>
      <point x="50" y="140" type="curve"/>
      <point x="60" y="0" type="line"/>
      <point x="82" y="-4"/>
      <point x="122" y="-10"/>
      <point x="171" y="-10" type="curve" smooth="yes"/>
      <point x="246" y="-10"/>
      <point x="298" y="31"/>
      <point x="342" y="113" type="curve" smooth="yes"/>
      <point x="428" y="282"/>
      <point x="470" y="620"/>
      <point x="470" y="1027" type="curve" smooth="yes"/>
      <point x="470" y="1188" type="line"/>
      <point x="785" y="1188" type="line"/>
      <point x="784" y="101" type="line"/>
      <point x="625" y="83" type="line"/>
      <point x="625" y="0" type="line"/>
      <point x="868" y="0" type="line" smooth="yes"/>
      <point x="934" y="0"/>
      <point x="1091" y="-14"/>
      <point x="1128" y="-14" type="curve" smooth="yes"/>
      <point x="1371" y="-14"/>
      <point x="1537" y="123"/>
      <point x="1537" y="382" type="curve" smooth="yes"/>
      <point x="1537" y="604"/>
      <point x="1402" y="736"/>
      <point x="1146" y="736" type="curve" smooth="yes"/>
      <point x="1072" y="736"/>
      <point x="976" y="724"/>
    </contour>
    <contour>
      <point x="944" y="91" type="curve"/>
      <point x="944" y="620" type="line"/>
      <point x="969" y="626"/>
      <point x="1041" y="632"/>
      <point x="1102" y="632" type="curve" smooth="yes"/>
      <point x="1270" y="632"/>
      <point x="1367" y="549"/>
      <point x="1367" y="368" type="curve" smooth="yes"/>
      <point x="1367" y="182"/>
      <point x="1273" y="75"/>
      <point x="1099" y="75" type="curve" smooth="yes"/>
      <point x="1026" y="75"/>
      <point x="987" y="81"/>
    </contour>
  </outline>
</glyph>
<glyph name="nje-cy.sc" format="1">
  <advance width="1698"/>
  <outline>
    <contour>
      <point x="646" y="-144" type="move" name="mark0"/>
    </contour>
    <contour>
      <point x="1249" y="739" type="curve" smooth="yes"/>
      <point x="1048" y="739" type="line"/>
      <point x="1048" y="1189" type="line"/>
      <point x="1180" y="1211" type="line"/>
      <point x="1180" y="1292" type="line"/>
      <point x="756" y="1292" type="line"/>
      <point x="756" y="1211" type="line"/>
      <point x="886" y="1188" type="line"/>
      <point x="886" y="713" type="line"/>
      <point x="378" y="713" type="line"/>
      <point x="378" y="1188" type="line"/>
      <point x="511" y="1207" type="line"/>
      <point x="511" y="1292" type="line"/>
      <point x="94" y="1292" type="line"/>
      <point x="94" y="1207" type="line"/>
      <point x="217" y="1188" type="line"/>
      <point x="217" y="99" type="line"/>
      <point x="85" y="83" type="line"/>
      <point x="85" y="0" type="line"/>
      <point x="521" y="0" type="line"/>
      <point x="521" y="85" type="line"/>
      <point x="378" y="102" type="line"/>
      <point x="378" y="612" type="line"/>
      <point x="886" y="612" type="line"/>
      <point x="886" y="102" type="line"/>
      <point x="761" y="85" type="line"/>
      <point x="761" y="0" type="line"/>
      <point x="947" y="0" type="line" smooth="yes"/>
      <point x="1010" y="0"/>
      <point x="1184" y="-18"/>
      <point x="1238" y="-18" type="curve" smooth="yes"/>
      <point x="1477" y="-18"/>
      <point x="1640" y="107"/>
      <point x="1640" y="382" type="curve" smooth="yes"/>
      <point x="1640" y="606"/>
      <point x="1498" y="739"/>
    </contour>
    <contour>
      <point x="1048" y="100" type="curve"/>
      <point x="1048" y="634" type="line"/>
      <point x="1204" y="634" type="line" smooth="yes"/>
      <point x="1368" y="634"/>
      <point x="1471" y="552"/>
      <point x="1471" y="370" type="curve" smooth="yes"/>
      <point x="1471" y="182"/>
      <point x="1375" y="79"/>
      <point x="1201" y="79" type="curve" smooth="yes"/>
      <point x="1135" y="79"/>
      <point x="1087" y="94"/>
    </contour>
  </outline>
</glyph>
<glyph name="obarred-cy.sc" format="1">
  <advance width="1125"/>
  <outline>
    <contour>
      <point x="578" y="1273" type="move" name="top"/>
    </contour>
    <contour>
      <point x="555" y="-144" type="move" name="mark0"/>
    </contour>
    <contour>
      <point x="576" y="1308" type="curve" smooth="yes"/>
      <point x="280" y="1308"/>
      <point x="57" y="1048"/>
      <point x="57" y="639" type="curve" smooth="yes"/>
      <point x="57" y="248"/>
      <point x="226" y="-26"/>
      <point x="552" y="-20" type="curve" smooth="yes"/>
      <point x="847" y="-14"/>
      <point x="1069" y="253"/>
      <point x="1069" y="661" type="curve" smooth="yes"/>
      <point x="1069" y="1050"/>
      <point x="903" y="1308"/>
    </contour>
    <contour>
      <point x="236" y="605" type="curve"/>
      <point x="886" y="605" type="line"/>
      <point x="874" y="251"/>
      <point x="745" y="70"/>
      <point x="560" y="70" type="curve" smooth="yes"/>
      <point x="361" y="70"/>
      <point x="244" y="281"/>
    </contour>
    <contour>
      <point x="887" y="695" type="curve"/>
      <point x="236" y="695" type="line"/>
      <point x="248" y="1038"/>
      <point x="372" y="1218"/>
      <point x="564" y="1218" type="curve" smooth="yes"/>
      <point x="763" y="1218"/>
      <point x="877" y="1018"/>
    </contour>
  </outline>
</glyph>
<glyph name="pe-cy.sc" format="1">
  <advance width="1256"/>
  <outline>
    <contour>
      <point x="872" y="0" type="move" name="bottomright"/>
    </contour>
    <contour>
      <point x="87" y="1292" type="line"/>
      <point x="87" y="1207" type="line"/>
      <point x="218" y="1188" type="line"/>
      <point x="218" y="99" type="line"/>
      <point x="94" y="83" type="line"/>
      <point x="94" y="0" type="line"/>
      <point x="523" y="0" type="line"/>
      <point x="523" y="83" type="line"/>
      <point x="379" y="99" type="line"/>
      <point x="379" y="1191" type="line"/>
      <point x="878" y="1191" type="line"/>
      <point x="878" y="101" type="line"/>
      <point x="749" y="83" type="line"/>
      <point x="749" y="0" type="line"/>
      <point x="1183" y="0" type="line"/>
      <point x="1183" y="83" type="line"/>
      <point x="1039" y="101" type="line"/>
      <point x="1039" y="1187" type="line"/>
      <point x="1171" y="1209" type="line"/>
      <point x="1171" y="1292" type="line"/>
    </contour>
  </outline>
</glyph>
<glyph name="pedescender-cy.sc" format="1">
  <advance width="1283"/>
  <outline>
    <contour>
      <point x="1219" y="101" type="curve"/>
      <point x="1039" y="101" type="line"/>
      <point x="1039" y="1187" type="line"/>
      <point x="1171" y="1209" type="line"/>
      <point x="1171" y="1292" type="line"/>
      <point x="87" y="1292" type="line"/>
      <point x="87" y="1207" type="line"/>
      <point x="218" y="1188" type="line"/>
      <point x="218" y="99" type="line"/>
      <point x="94" y="83" type="line"/>
      <point x="94" y="0" type="line"/>
      <point x="523" y="0" type="line"/>
      <point x="523" y="83" type="line"/>
      <point x="379" y="99" type="line"/>
      <point x="379" y="1191" type="line"/>
      <point x="878" y="1191" type="line"/>
      <point x="878" y="101" type="line"/>
      <point x="749" y="83" type="line"/>
      <point x="749" y="0" type="line"/>
      <point x="1058" y="0" type="line"/>
      <point x="1064" y="-22"/>
      <point x="1080" y="-285"/>
      <point x="1080" y="-323" type="curve"/>
      <point x="1179" y="-323" type="line"/>
      <point x="1182" y="-313"/>
      <point x="1219" y="80"/>
    </contour>
  </outline>
</glyph>
<glyph name="pemiddlehook-cy.sc" format="1">
  <advance width="1703"/>
  <outline>
    <contour>
      <point x="638" y="-144" type="move" name="mark0"/>
    </contour>
    <contour>
      <point x="1039" y="684" type="curve"/>
      <point x="1039" y="1187" type="line"/>
      <point x="1171" y="1209" type="line"/>
      <point x="1171" y="1292" type="line"/>
      <point x="87" y="1292" type="line"/>
      <point x="87" y="1207" type="line"/>
      <point x="218" y="1188" type="line"/>
      <point x="218" y="99" type="line"/>
      <point x="94" y="83" type="line"/>
      <point x="94" y="0" type="line"/>
      <point x="523" y="0" type="line"/>
      <point x="523" y="83" type="line"/>
      <point x="379" y="99" type="line"/>
      <point x="379" y="1191" type="line"/>
      <point x="878" y="1191" type="line"/>
      <point x="878" y="101" type="line"/>
      <point x="749" y="83" type="line"/>
      <point x="749" y="0" type="line"/>
      <point x="1183" y="0" type="line"/>
      <point x="1183" y="83" type="line"/>
      <point x="1039" y="101" type="line"/>
      <point x="1039" y="588" type="line"/>
      <point x="1090" y="613"/>
      <point x="1154" y="631"/>
      <point x="1241" y="631" type="curve" smooth="yes"/>
      <point x="1409" y="631"/>
      <point x="1464" y="520"/>
      <point x="1464" y="283" type="curve" smooth="yes"/>
      <point x="1464" y="-60"/>
      <point x="1400" y="-238"/>
      <point x="1242" y="-238" type="curve" smooth="yes"/>
      <point x="1207" y="-238"/>
      <point x="1177" y="-237"/>
      <point x="1162" y="-231" type="curve"/>
      <point x="1165" y="-330" type="line"/>
      <point x="1186" y="-340"/>
      <point x="1231" y="-347"/>
      <point x="1264" y="-347" type="curve" smooth="yes"/>
      <point x="1501" y="-347"/>
      <point x="1628" y="-69"/>
      <point x="1628" y="298" type="curve" smooth="yes"/>
      <point x="1628" y="565"/>
      <point x="1557" y="743"/>
      <point x="1280" y="743" type="curve" smooth="yes"/>
      <point x="1189" y="743"/>
      <point x="1082" y="710"/>
    </contour>
  </outline>
</glyph>
<glyph name="reversedze-cy.sc" format="1">
  <advance width="935"/>
  <outline>
    <contour>
      <point x="829" y="48" type="curve"/>
      <point x="862" y="292" type="line"/>
      <point x="771" y="303" type="line"/>
      <point x="707" y="131" type="line"/>
      <point x="671" y="98"/>
      <point x="595" y="70"/>
      <point x="518" y="70" type="curve" smooth="yes"/>
      <point x="364" y="70"/>
      <point x="277" y="164"/>
      <point x="277" y="347" type="curve" smooth="yes"/>
      <point x="277" y="468"/>
      <point x="327" y="618"/>
      <point x="533" y="618" type="curve"/>
      <point x="649" y="612" type="line"/>
      <point x="649" y="725" type="line"/>
      <point x="552" y="713" type="line"/>
      <point x="428" y="713"/>
      <point x="298" y="773"/>
      <point x="298" y="963" type="curve" smooth="yes"/>
      <point x="298" y="1123"/>
      <point x="381" y="1216"/>
      <point x="517" y="1216" type="curve" smooth="yes"/>
      <point x="610" y="1216"/>
      <point x="674" y="1184"/>
      <point x="696" y="1164" type="curve"/>
      <point x="726" y="963" type="line"/>
      <point x="823" y="963" type="line"/>
      <point x="837" y="1252" type="line"/>
      <point x="773" y="1268"/>
      <point x="623" y="1306"/>
      <point x="520" y="1306" type="curve" smooth="yes"/>
      <point x="270" y="1306"/>
      <point x="125" y="1182"/>
      <point x="125" y="976" type="curve" smooth="yes"/>
      <point x="125" y="780"/>
      <point x="261" y="698"/>
      <point x="392" y="670" type="curve"/>
      <point x="200" y="660"/>
      <point x="91" y="522"/>
      <point x="91" y="342" type="curve" smooth="yes"/>
      <point x="91" y="128"/>
      <point x="211" y="-20"/>
      <point x="509" y="-20" type="curve" smooth="yes"/>
      <point x="659" y="-20"/>
      <point x="751" y="44"/>
    </contour>
  </outline>
</glyph>
<glyph name="semisoftsign-cy.sc" format="1">
  <advance width="1032"/>
  <outline>
    <contour>
      <point x="378" y="783" type="curve"/>
      <point x="378" y="938" type="line"/>
      <point x="576" y="938" type="line"/>
      <point x="576" y="1026" type="line"/>
      <point x="378" y="1026" type="line"/>
      <point x="378" y="1188" type="line"/>
      <point x="529" y="1211" type="line"/>
      <point x="529" y="1292" type="line"/>
      <point x="91" y="1292" type="line"/>
      <point x="91" y="1211" type="line"/>
      <point x="217" y="1189" type="line"/>
      <point x="217" y="1026" type="line"/>
      <point x="63" y="1026" type="line"/>
      <point x="63" y="938" type="line"/>
      <point x="217" y="938" type="line"/>
      <point x="217" y="99" type="line"/>
      <point x="88" y="83" type="line"/>
      <point x="88" y="0" type="line"/>
      <point x="297" y="0" type="line" smooth="yes"/>
      <point x="377" y="0"/>
      <point x="507" y="-14"/>
      <point x="560" y="-14" type="curve" smooth="yes"/>
      <point x="800" y="-14"/>
      <point x="972" y="133"/>
      <point x="972" y="406" type="curve" smooth="yes"/>
      <point x="972" y="643"/>
      <point x="836" y="785"/>
      <point x="583" y="785" type="curve"/>
      <point x="523" y="785"/>
      <point x="435" y="783"/>
    </contour>
    <contour>
      <point x="378" y="93" type="curve"/>
      <point x="378" y="685" type="line"/>
      <point x="426" y="685"/>
      <point x="489" y="685"/>
      <point x="537" y="685" type="curve" smooth="yes"/>
      <point x="703" y="685"/>
      <point x="802" y="592"/>
      <point x="802" y="395" type="curve" smooth="yes"/>
      <point x="802" y="192"/>
      <point x="707" y="79"/>
      <point x="534" y="79" type="curve" smooth="yes"/>
      <point x="455" y="79"/>
      <point x="419" y="85"/>
    </contour>
  </outline>
</glyph>
<glyph name="sha-cy.sc" format="1">
  <advance width="1722"/>
  <outline>
    <contour>
      <point x="600" y="-144" type="move" name="mark0"/>
    </contour>
    <contour>
      <point x="89" y="1292" type="line"/>
      <point x="89" y="1207" type="line"/>
      <point x="218" y="1188" type="line"/>
      <point x="218" y="101" type="line"/>
      <point x="73" y="83" type="line"/>
      <point x="73" y="0" type="line"/>
      <point x="1648" y="0" type="line"/>
      <point x="1648" y="83" type="line"/>
      <point x="1504" y="101" type="line"/>
      <point x="1504" y="1188" type="line"/>
      <point x="1632" y="1207" type="line"/>
      <point x="1632" y="1292" type="line"/>
      <point x="1228" y="1292" type="line"/>
      <point x="1228" y="1207" type="line"/>
      <point x="1343" y="1188" type="line"/>
      <point x="1343" y="99" type="line"/>
      <point x="943" y="99" type="line"/>
      <point x="943" y="1188" type="line"/>
      <point x="1064" y="1207" type="line"/>
      <point x="1064" y="1292" type="line"/>
      <point x="668" y="1292" type="line"/>
      <point x="668" y="1207" type="line"/>
      <point x="786" y="1188" type="line"/>
      <point x="786" y="99" type="line"/>
      <point x="378" y="99" type="line"/>
      <point x="378" y="1187" type="line"/>
      <point x="517" y="1207" type="line"/>
      <point x="517" y="1292" type="line"/>
    </contour>
  </outline>
</glyph>
<glyph name="shcha-cy.sc" format="1">
  <advance width="1742"/>
  <outline>
    <contour>
      <point x="1690" y="101" type="curve"/>
      <point x="1504" y="101" type="line"/>
      <point x="1504" y="1188" type="line"/>
      <point x="1632" y="1207" type="line"/>
      <point x="1632" y="1292" type="line"/>
      <point x="1228" y="1292" type="line"/>
      <point x="1228" y="1207" type="line"/>
      <point x="1343" y="1188" type="line"/>
      <point x="1343" y="99" type="line"/>
      <point x="943" y="99" type="line"/>
      <point x="943" y="1188" type="line"/>
      <point x="1064" y="1207" type="line"/>
      <point x="1064" y="1292" type="line"/>
      <point x="668" y="1292" type="line"/>
      <point x="668" y="1207" type="line"/>
      <point x="786" y="1188" type="line"/>
      <point x="786" y="99" type="line"/>
      <point x="378" y="99" type="line"/>
      <point x="378" y="1188" type="line"/>
      <point x="517" y="1207" type="line"/>
      <point x="517" y="1292" type="line"/>
      <point x="89" y="1292" type="line"/>
      <point x="89" y="1207" type="line"/>
      <point x="218" y="1188" type="line"/>
      <point x="218" y="101" type="line"/>
      <point x="73" y="83" type="line"/>
      <point x="73" y="0" type="line"/>
      <point x="1528" y="0" type="line"/>
      <point x="1535" y="-18"/>
      <point x="1550" y="-289"/>
      <point x="1551" y="-323" type="curve"/>
      <point x="1650" y="-323" type="line"/>
      <point x="1663" y="-195"/>
      <point x="1680" y="-20"/>
    </contour>
  </outline>
</glyph>
<glyph name="shha-cy.sc" format="1">
  <advance width="1088"/>
  <outline>
    <contour>
      <point x="36" y="1124" type="move" name="topleft"/>
    </contour>
    <contour>
      <point x="540" y="476" type="move" name="center"/>
    </contour>
    <contour>
      <point x="581" y="-168" type="move" name="bottom"/>
    </contour>
    <contour>
      <point x="372" y="721" type="curve"/>
      <point x="372" y="1191" type="line"/>
      <point x="534" y="1209" type="line"/>
      <point x="534" y="1292" type="line"/>
      <point x="73" y="1292" type="line"/>
      <point x="73" y="1209" type="line"/>
      <point x="211" y="1191" type="line"/>
      <point x="211" y="106" type="line"/>
      <point x="75" y="85" type="line"/>
      <point x="75" y="0" type="line"/>
      <point x="509" y="0" type="line"/>
      <point x="509" y="85" type="line"/>
      <point x="372" y="104" type="line"/>
      <point x="372" y="625" type="line"/>
      <point x="413" y="653"/>
      <point x="521" y="679"/>
      <point x="599" y="679" type="curve" smooth="yes"/>
      <point x="789" y="679"/>
      <point x="811" y="625"/>
      <point x="811" y="346" type="curve" smooth="yes"/>
      <point x="811" y="105" type="line"/>
      <point x="679" y="85" type="line"/>
      <point x="679" y="0" type="line"/>
      <point x="1068" y="0" type="line"/>
      <point x="1068" y="85" type="line"/>
      <point x="973" y="106" type="line"/>
      <point x="973" y="399" type="line" smooth="yes"/>
      <point x="973" y="660"/>
      <point x="910" y="795"/>
      <point x="672" y="795" type="curve" smooth="yes"/>
      <point x="578" y="795"/>
      <point x="448" y="769"/>
    </contour>
  </outline>
</glyph>
<glyph name="shhadescender-cy.sc" format="1">
  <advance width="1203"/>
  <outline>
    <contour>
      <point x="36" y="1292" type="move" name="topleft"/>
    </contour>
    <contour>
      <point x="540" y="646" type="move" name="center"/>
    </contour>
    <contour>
      <point x="581" y="0" type="move" name="bottom"/>
    </contour>
    <contour>
      <point x="75" y="0" type="line"/>
      <point x="509" y="0" type="line"/>
      <point x="509" y="85" type="line"/>
      <point x="372" y="106" type="line"/>
      <point x="372" y="625" type="line"/>
      <point x="413" y="653"/>
      <point x="517" y="681"/>
      <point x="599" y="681" type="curve" smooth="yes"/>
      <point x="789" y="681"/>
      <point x="811" y="626"/>
      <point x="811" y="348" type="curve" smooth="yes"/>
      <point x="811" y="107" type="line"/>
      <point x="679" y="87" type="line"/>
      <point x="679" y="0" type="line"/>
      <point x="989" y="0" type="line"/>
      <point x="996" y="-22"/>
      <point x="1012" y="-290"/>
      <point x="1012" y="-323" type="curve"/>
      <point x="1111" y="-323" type="line"/>
      <point x="1113" y="-313"/>
      <point x="1151" y="82"/>
      <point x="1151" y="101" type="curve"/>
      <point x="973" y="108" type="line"/>
      <point x="973" y="399" type="line"/>
      <point x="973" y="696"/>
      <point x="886" y="795"/>
      <point x="672" y="795" type="curve" smooth="yes"/>
      <point x="580" y="795"/>
      <point x="449" y="771"/>
      <point x="372" y="723" type="curve"/>
      <point x="372" y="1193" type="line"/>
      <point x="534" y="1209" type="line"/>
      <point x="534" y="1292" type="line"/>
      <point x="74" y="1292" type="line"/>
      <point x="74" y="1211" type="line"/>
      <point x="211" y="1193" type="line"/>
      <point x="211" y="106" type="line"/>
      <point x="75" y="85" type="line"/>
    </contour>
  </outline>
</glyph>
<glyph name="tedescender-cy.sc" format="1">
  <advance width="1138"/>
  <outline>
    <contour>
      <point x="909" y="101" type="curve"/>
      <point x="653" y="101" type="line"/>
      <point x="653" y="1203" type="line"/>
      <point x="923" y="1193" type="line"/>
      <point x="972" y="832" type="line"/>
      <point x="1069" y="832" type="line"/>
      <point x="1051" y="1292" type="line"/>
      <point x="89" y="1292" type="line"/>
      <point x="63" y="832" type="line"/>
      <point x="164" y="832" type="line"/>
      <point x="218" y="1193" type="line"/>
      <point x="485" y="1203" type="line"/>
      <point x="485" y="101" type="line"/>
      <point x="285" y="83" type="line"/>
      <point x="285" y="0" type="line"/>
      <point x="755" y="0" type="line"/>
      <point x="761" y="-99"/>
      <point x="766" y="-225"/>
      <point x="770" y="-323" type="curve"/>
      <point x="867" y="-323" type="line"/>
      <point x="881" y="-202"/>
      <point x="897" y="-49"/>
    </contour>
  </outline>
</glyph>
<glyph name="tetse-cy.sc" format="1">
  <advance width="1548"/>
  <outline>
    <contour>
      <point x="1512" y="101" type="curve"/>
      <point x="1314" y="101" type="line"/>
      <point x="1314" y="1188" type="line"/>
      <point x="1439" y="1207" type="line"/>
      <point x="1439" y="1292" type="line"/>
      <point x="1033" y="1292" type="line"/>
      <point x="1033" y="1207" type="line"/>
      <point x="1153" y="1188" type="line"/>
      <point x="1153" y="98" type="line"/>
      <point x="563" y="98" type="line"/>
      <point x="563" y="1199" type="line"/>
      <point x="758" y="1188" type="line"/>
      <point x="803" y="857" type="line"/>
      <point x="900" y="857" type="line"/>
      <point x="882" y="1292" type="line"/>
      <point x="79" y="1292" type="line"/>
      <point x="62" y="857" type="line"/>
      <point x="160" y="857" type="line"/>
      <point x="204" y="1188" type="line"/>
      <point x="402" y="1199" type="line"/>
      <point x="402" y="99" type="line"/>
      <point x="269" y="83" type="line"/>
      <point x="269" y="0" type="line"/>
      <point x="1350" y="0" type="line"/>
      <point x="1355" y="-18"/>
      <point x="1372" y="-276"/>
      <point x="1372" y="-317" type="curve"/>
      <point x="1471" y="-317" type="line"/>
      <point x="1483" y="-201"/>
      <point x="1500" y="-32"/>
    </contour>
  </outline>
</glyph>
<glyph name="tse-cy.sc" format="1">
  <advance width="1261"/>
  <outline>
    <contour>
      <point x="1209" y="101" type="curve"/>
      <point x="1029" y="101" type="line"/>
      <point x="1029" y="1188" type="line"/>
      <point x="1156" y="1207" type="line"/>
      <point x="1156" y="1292" type="line"/>
      <point x="750" y="1292" type="line"/>
      <point x="750" y="1207" type="line"/>
      <point x="867" y="1188" type="line"/>
      <point x="867" y="98" type="line"/>
      <point x="378" y="98" type="line"/>
      <point x="378" y="1188" type="line"/>
      <point x="530" y="1207" type="line"/>
      <point x="530" y="1292" type="line"/>
      <point x="88" y="1292" type="line"/>
      <point x="88" y="1207" type="line"/>
      <point x="218" y="1188" type="line"/>
      <point x="218" y="103" type="line"/>
      <point x="74" y="83" type="line"/>
      <point x="74" y="0" type="line"/>
      <point x="1048" y="0" type="line"/>
      <point x="1055" y="-22"/>
      <point x="1070" y="-289"/>
      <point x="1071" y="-323" type="curve"/>
      <point x="1170" y="-323" type="line"/>
      <point x="1172" y="-315"/>
      <point x="1209" y="82"/>
    </contour>
  </outline>
</glyph>
<glyph name="tshe-cy.sc" format="1">
  <advance width="1374"/>
  <outline>
    <contour>
      <point x="549" y="-144" type="move" name="mark0"/>
    </contour>
    <contour>
      <point x="651" y="660" type="curve"/>
      <point x="651" y="1203" type="line"/>
      <point x="959" y="1188" type="line"/>
      <point x="996" y="883" type="line"/>
      <point x="1094" y="883" type="line"/>
      <point x="1089" y="1292" type="line"/>
      <point x="87" y="1292" type="line"/>
      <point x="67" y="883" type="line"/>
      <point x="167" y="883" type="line"/>
      <point x="212" y="1188" type="line"/>
      <point x="487" y="1203" type="line"/>
      <point x="487" y="101" type="line"/>
      <point x="284" y="83" type="line"/>
      <point x="284" y="0" type="line"/>
      <point x="803" y="0" type="line"/>
      <point x="803" y="83" type="line"/>
      <point x="651" y="101" type="line"/>
      <point x="651" y="567" type="line"/>
      <point x="695" y="598"/>
      <point x="774" y="631"/>
      <point x="888" y="631" type="curve" smooth="yes"/>
      <point x="1060" y="631"/>
      <point x="1082" y="492"/>
      <point x="1082" y="304" type="curve" smooth="yes"/>
      <point x="1082" y="99" type="line"/>
      <point x="968" y="83" type="line"/>
      <point x="968" y="0" type="line"/>
      <point x="1362" y="0" type="line"/>
      <point x="1362" y="83" type="line"/>
      <point x="1242" y="99" type="line"/>
      <point x="1242" y="358" type="line" smooth="yes"/>
      <point x="1242" y="617"/>
      <point x="1174" y="743"/>
      <point x="924" y="743" type="curve" smooth="yes"/>
      <point x="841" y="743"/>
      <point x="716" y="707"/>
    </contour>
  </outline>
</glyph>
<glyph name="u-cy.sc" format="1">
  <advance width="1058"/>
  <outline>
    <contour>
      <point x="531" y="1273" type="move" name="top"/>
    </contour>
    <contour>
      <point x="625" y="267" type="curve"/>
      <point x="953" y="1188" type="line"/>
      <point x="1032" y="1207" type="line"/>
      <point x="1032" y="1292" type="line"/>
      <point x="701" y="1292" type="line"/>
      <point x="701" y="1207" type="line"/>
      <point x="835" y="1188" type="line"/>
      <point x="637" y="578" type="line"/>
      <point x="586" y="416" type="line"/>
      <point x="538" y="576" type="line"/>
      <point x="288" y="1188" type="line"/>
      <point x="440" y="1207" type="line"/>
      <point x="440" y="1292" type="line"/>
      <point x="26" y="1292" type="line"/>
      <point x="26" y="1207" type="line"/>
      <point x="110" y="1188" type="line"/>
      <point x="500" y="279" type="line"/>
      <point x="468" y="168"/>
      <point x="430" y="127"/>
      <point x="336" y="127" type="curve" smooth="yes"/>
      <point x="317" y="127"/>
      <point x="236" y="129"/>
      <point x="227" y="131" type="curve"/>
      <point x="227" y="10" type="line"/>
      <point x="258" y="-6"/>
      <point x="311" y="-20"/>
      <point x="368" y="-20" type="curve" smooth="yes"/>
      <point x="534" y="-20"/>
      <point x="582" y="160"/>
    </contour>
  </outline>
</glyph>
<glyph name="ustraitstroke-cy.sc" format="1">
  <advance width="1086"/>
  <outline>
    <contour>
      <point x="74" y="1292" type="move" name="topleft"/>
    </contour>
    <contour>
      <point x="558" y="485" type="move" name="center"/>
    </contour>
    <contour>
      <point x="543" y="0" type="move" name="bottom"/>
    </contour>
    <contour>
      <point x="551" y="1292" type="move" name="top"/>
    </contour>
    <contour>
      <point x="558" y="485" type="move" name="_center"/>
    </contour>
    <contour>
      <point x="505" y="-144" type="move" name="mark0"/>
    </contour>
    <contour>
      <point x="467" y="101" type="line"/>
      <point x="299" y="83" type="line"/>
      <point x="299" y="0" type="line"/>
      <point x="809" y="0" type="line"/>
      <point x="809" y="83" type="line"/>
      <point x="636" y="101" type="line"/>
      <point x="636" y="506" type="line"/>
      <point x="960" y="1189" type="line"/>
      <point x="1060" y="1207" type="line"/>
      <point x="1060" y="1292" type="line"/>
      <point x="709" y="1292" type="line"/>
      <point x="709" y="1207" type="line"/>
      <point x="837" y="1188" type="line"/>
      <point x="628" y="715" type="line"/>
      <point x="574" y="583" type="line"/>
      <point x="523" y="715" type="line"/>
      <point x="303" y="1188" type="line"/>
      <point x="426" y="1207" type="line"/>
      <point x="426" y="1292" type="line"/>
      <point x="26" y="1292" type="line"/>
      <point x="26" y="1207" type="line"/>
      <point x="119" y="1187" type="line"/>
      <point x="467" y="504" type="line"/>
    </contour>
    <contour>
      <point x="871" y="543" type="line"/>
      <point x="244" y="543" type="line"/>
      <point x="244" y="421" type="line"/>
      <point x="871" y="421" type="line"/>
    </contour>
  </outline>
</glyph>
<glyph name="yat-cy.sc" format="1">
  <advance width="1189"/>
  <outline>
    <contour>
      <point x="548" y="689" type="curve"/>
      <point x="548" y="1037" type="line"/>
      <point x="801" y="1017" type="line"/>
      <point x="837" y="879" type="line"/>
      <point x="939" y="879" type="line"/>
      <point x="921" y="1123" type="line"/>
      <point x="548" y="1123" type="line"/>
      <point x="548" y="1292" type="line"/>
      <point x="688" y="1316" type="line"/>
      <point x="688" y="1393" type="line"/>
      <point x="251" y="1393" type="line"/>
      <point x="251" y="1316" type="line"/>
      <point x="387" y="1294" type="line"/>
      <point x="387" y="1123" type="line"/>
      <point x="26" y="1123" type="line"/>
      <point x="6" y="879" type="line"/>
      <point x="107" y="879" type="line"/>
      <point x="143" y="1017" type="line"/>
      <point x="387" y="1037" type="line"/>
      <point x="387" y="99" type="line"/>
      <point x="240" y="83" type="line"/>
      <point x="240" y="0" type="line"/>
      <point x="473" y="0" type="line" smooth="yes"/>
      <point x="537" y="0"/>
      <point x="676" y="-14"/>
      <point x="716" y="-14" type="curve" smooth="yes"/>
      <point x="961" y="-14"/>
      <point x="1129" y="128"/>
      <point x="1129" y="365" type="curve" smooth="yes"/>
      <point x="1129" y="554"/>
      <point x="1017" y="709"/>
      <point x="741" y="709" type="curve" smooth="yes"/>
      <point x="665" y="709"/>
      <point x="584" y="697"/>
    </contour>
    <contour>
      <point x="548" y="92" type="curve"/>
      <point x="548" y="605" type="line"/>
      <point x="577" y="613"/>
      <point x="645" y="615"/>
      <point x="697" y="615" type="curve" smooth="yes"/>
      <point x="860" y="615"/>
      <point x="960" y="511"/>
      <point x="960" y="351" type="curve" smooth="yes"/>
      <point x="960" y="181"/>
      <point x="859" y="77"/>
      <point x="689" y="77" type="curve" smooth="yes"/>
      <point x="620" y="77"/>
      <point x="583" y="82"/>
    </contour>
  </outline>
</glyph>
<glyph name="yeru-cy.sc" format="1">
  <advance width="1650"/>
  <outline>
    <contour>
      <point x="825" y="1273" type="move" name="top"/>
    </contour>
    <contour>
      <point x="378" y="783" type="curve"/>
      <point x="378" y="1188" type="line"/>
      <point x="528" y="1211" type="line"/>
      <point x="528" y="1292" type="line"/>
      <point x="91" y="1292" type="line"/>
      <point x="91" y="1211" type="line"/>
      <point x="217" y="1189" type="line"/>
      <point x="217" y="99" type="line"/>
      <point x="87" y="83" type="line"/>
      <point x="87" y="0" type="line"/>
      <point x="297" y="0" type="line" smooth="yes"/>
      <point x="376" y="0"/>
      <point x="507" y="-14"/>
      <point x="560" y="-14" type="curve" smooth="yes"/>
      <point x="798" y="-14"/>
      <point x="971" y="131"/>
      <point x="971" y="406" type="curve" smooth="yes"/>
      <point x="971" y="643"/>
      <point x="836" y="785"/>
      <point x="582" y="785" type="curve" smooth="yes"/>
      <point x="520" y="785"/>
      <point x="435" y="783"/>
    </contour>
    <contour>
      <point x="378" y="93" type="curve"/>
      <point x="378" y="685" type="line"/>
      <point x="425" y="685"/>
      <point x="487" y="685"/>
      <point x="535" y="685" type="curve" smooth="yes"/>
      <point x="703" y="685"/>
      <point x="802" y="592"/>
      <point x="802" y="395" type="curve" smooth="yes"/>
      <point x="802" y="192"/>
      <point x="707" y="79"/>
      <point x="533" y="79" type="curve" smooth="yes"/>
      <point x="455" y="79"/>
      <point x="418" y="85"/>
    </contour>
    <contour>
      <point x="1100" y="1292" type="line"/>
      <point x="1100" y="1207" type="line"/>
      <point x="1243" y="1188" type="line"/>
      <point x="1243" y="101" type="line"/>
      <point x="1100" y="83" type="line"/>
      <point x="1100" y="0" type="line"/>
      <point x="1552" y="0" type="line"/>
      <point x="1552" y="83" type="line"/>
      <point x="1407" y="99" type="line"/>
      <point x="1407" y="1188" type="line"/>
      <point x="1552" y="1207" type="line"/>
      <point x="1552" y="1292" type="line"/>
    </contour>
  </outline>
</glyph>
<glyph name="yusbig-cy.sc" format="1">
  <advance width="1647"/>
  <outline>
    <contour>
      <point x="647" y="600" type="curve" smooth="yes"/>
      <point x="747" y="600" type="line"/>
      <point x="747" y="101" type="line"/>
      <point x="616" y="83" type="line"/>
      <point x="616" y="0" type="line"/>
      <point x="1037" y="0" type="line"/>
      <point x="1037" y="83" type="line"/>
      <point x="901" y="101" type="line"/>
      <point x="901" y="600" type="line"/>
      <point x="999" y="600" type="line" smooth="yes"/>
      <point x="1135" y="600"/>
      <point x="1317" y="0"/>
      <point x="1427" y="0" type="curve" smooth="yes"/>
      <point x="1618" y="0" type="line"/>
      <point x="1618" y="83" type="line"/>
      <point x="1557" y="101" type="line" smooth="yes"/>
      <point x="1474" y="127"/>
      <point x="1279" y="684"/>
      <point x="1078" y="684" type="curve" smooth="yes"/>
      <point x="941" y="684" type="line"/>
      <point x="1329" y="1212" type="line"/>
      <point x="1320" y="1292" type="line"/>
      <point x="327" y="1292" type="line"/>
      <point x="319" y="1212" type="line"/>
      <point x="705" y="684" type="line"/>
      <point x="568" y="684" type="line" smooth="yes"/>
      <point x="380" y="684"/>
      <point x="173" y="127"/>
      <point x="90" y="101" type="curve" smooth="yes"/>
      <point x="30" y="83" type="line"/>
      <point x="30" y="0" type="line"/>
      <point x="219" y="0" type="line" smooth="yes"/>
      <point x="331" y="0"/>
      <point x="513" y="600"/>
    </contour>
    <contour>
      <point x="484" y="1179" type="line"/>
      <point x="1163" y="1179" type="line"/>
      <point x="824" y="682" type="line"/>
    </contour>
  </outline>
</glyph>
<glyph name="ze-cy.sc" format="1">
  <advance width="966"/>
  <outline>
    <contour>
      <point x="484" y="1273" type="move" name="top"/>
    </contour>
    <contour>
      <point x="484" y="0" type="move" name="bottom"/>
    </contour>
    <contour>
      <point x="128" y="1250" type="curve"/>
      <point x="144" y="986" type="line"/>
      <point x="241" y="986" type="line"/>
      <point x="270" y="1145" type="line"/>
      <point x="291" y="1186"/>
      <point x="359" y="1214"/>
      <point x="448" y="1214" type="curve" smooth="yes"/>
      <point x="578" y="1214"/>
      <point x="668" y="1153"/>
      <point x="668" y="992" type="curve" smooth="yes"/>
      <point x="668" y="803"/>
      <point x="538" y="714"/>
      <point x="414" y="714" type="curve" smooth="yes"/>
      <point x="325" y="714" type="line"/>
      <point x="325" y="619" type="line"/>
      <point x="432" y="619" type="line" smooth="yes"/>
      <point x="638" y="619"/>
      <point x="688" y="486"/>
      <point x="688" y="365" type="curve" smooth="yes"/>
      <point x="688" y="177"/>
      <point x="614" y="86"/>
      <point x="477" y="86" type="curve" smooth="yes"/>
      <point x="378" y="86"/>
      <point x="308" y="106"/>
      <point x="269" y="132" type="curve"/>
      <point x="225" y="354" type="line"/>
      <point x="149" y="354" type="line"/>
      <point x="121" y="56" type="line"/>
      <point x="179" y="35"/>
      <point x="291" y="-10"/>
      <point x="446" y="-10" type="curve" smooth="yes"/>
      <point x="755" y="-10"/>
      <point x="875" y="141"/>
      <point x="875" y="379" type="curve" smooth="yes"/>
      <point x="875" y="547"/>
      <point x="774" y="676"/>
      <point x="576" y="682" type="curve"/>
      <point x="709" y="712"/>
      <point x="841" y="818"/>
      <point x="841" y="1014" type="curve" smooth="yes"/>
      <point x="841" y="1214"/>
      <point x="693" y="1306"/>
      <point x="440" y="1306" type="curve" smooth="yes"/>
      <point x="324" y="1306"/>
      <point x="193" y="1256"/>
    </contour>
  </outline>
</glyph>
<glyph name="zhe-cy.sc" format="1">
  <advance width="1636"/>
  <outline>
    <contour>
      <point x="818" y="1273" type="move" name="top"/>
    </contour>
    <contour>
      <point x="1592" y="0" type="move" name="bottomright"/>
    </contour>
    <contour>
      <point x="1133" y="670" type="curve"/>
      <point x="1469" y="1188" type="line"/>
      <point x="1591" y="1207" type="line"/>
      <point x="1591" y="1292" type="line"/>
      <point x="1216" y="1292" type="line"/>
      <point x="1216" y="1207" type="line"/>
      <point x="1337" y="1187" type="line"/>
      <point x="1031" y="682" type="line"/>
      <point x="896" y="682" type="line"/>
      <point x="896" y="1188" type="line"/>
      <point x="1028" y="1207" type="line"/>
      <point x="1028" y="1292" type="line"/>
      <point x="612" y="1292" type="line"/>
      <point x="612" y="1207" type="line"/>
      <point x="741" y="1188" type="line"/>
      <point x="741" y="682" type="line"/>
      <point x="606" y="682" type="line"/>
      <point x="297" y="1188" type="line"/>
      <point x="419" y="1207" type="line"/>
      <point x="419" y="1292" type="line"/>
      <point x="46" y="1292" type="line"/>
      <point x="46" y="1207" type="line"/>
      <point x="167" y="1188" type="line"/>
      <point x="502" y="674" type="line"/>
      <point x="341" y="602"/>
      <point x="170" y="125"/>
      <point x="86" y="101" type="curve" smooth="yes"/>
      <point x="25" y="83" type="line"/>
      <point x="25" y="0" type="line"/>
      <point x="207" y="0" type="line" smooth="yes"/>
      <point x="318" y="0"/>
      <point x="508" y="600"/>
      <point x="642" y="600" type="curve" smooth="yes"/>
      <point x="741" y="600" type="line"/>
      <point x="741" y="101" type="line"/>
      <point x="610" y="83" type="line"/>
      <point x="610" y="0" type="line"/>
      <point x="1032" y="0" type="line"/>
      <point x="1032" y="83" type="line"/>
      <point x="896" y="101" type="line"/>
      <point x="896" y="600" type="line"/>
      <point x="994" y="600" type="line" smooth="yes"/>
      <point x="1129" y="600"/>
      <point x="1316" y="0"/>
      <point x="1427" y="0" type="curve"/>
      <point x="1613" y="0" type="line"/>
      <point x="1613" y="83" type="line"/>
      <point x="1550" y="101" type="line" smooth="yes"/>
      <point x="1466" y="125"/>
      <point x="1294" y="599"/>
    </contour>
  </outline>
</glyph>
<glyph name="zhedescender-cy.sc" format="1">
  <advance width="1643"/>
  <outline>
    <contour>
      <point x="1134" y="672" type="curve"/>
      <point x="1469" y="1188" type="line"/>
      <point x="1591" y="1207" type="line"/>
      <point x="1591" y="1292" type="line"/>
      <point x="1216" y="1292" type="line"/>
      <point x="1216" y="1207" type="line"/>
      <point x="1337" y="1187" type="line"/>
      <point x="1031" y="682" type="line"/>
      <point x="896" y="682" type="line"/>
      <point x="896" y="1188" type="line"/>
      <point x="1028" y="1207" type="line"/>
      <point x="1028" y="1292" type="line"/>
      <point x="612" y="1292" type="line"/>
      <point x="612" y="1207" type="line"/>
      <point x="741" y="1188" type="line"/>
      <point x="741" y="682" type="line"/>
      <point x="606" y="682" type="line"/>
      <point x="297" y="1188" type="line"/>
      <point x="419" y="1207" type="line"/>
      <point x="419" y="1292" type="line"/>
      <point x="46" y="1292" type="line"/>
      <point x="46" y="1207" type="line"/>
      <point x="167" y="1188" type="line"/>
      <point x="502" y="674" type="line"/>
      <point x="341" y="602"/>
      <point x="167" y="127"/>
      <point x="85" y="101" type="curve" smooth="yes"/>
      <point x="25" y="83" type="line"/>
      <point x="25" y="0" type="line"/>
      <point x="214" y="0" type="line" smooth="yes"/>
      <point x="326" y="0"/>
      <point x="508" y="600"/>
      <point x="642" y="600" type="curve" smooth="yes"/>
      <point x="741" y="600" type="line"/>
      <point x="741" y="101" type="line"/>
      <point x="610" y="83" type="line"/>
      <point x="610" y="0" type="line"/>
      <point x="1032" y="0" type="line"/>
      <point x="1032" y="83" type="line"/>
      <point x="896" y="101" type="line"/>
      <point x="896" y="600" type="line"/>
      <point x="994" y="600" type="line" smooth="yes"/>
      <point x="1129" y="600"/>
      <point x="1312" y="0"/>
      <point x="1422" y="0" type="curve" smooth="yes"/>
      <point x="1485" y="0" type="line"/>
      <point x="1495" y="-26"/>
      <point x="1507" y="-285"/>
      <point x="1507" y="-323" type="curve"/>
      <point x="1606" y="-323" type="line"/>
      <point x="1609" y="-309"/>
      <point x="1646" y="78"/>
      <point x="1646" y="101" type="curve"/>
      <point x="1550" y="101" type="line"/>
      <point x="1466" y="135"/>
      <point x="1295" y="601"/>
    </contour>
  </outline>
</glyph>
